<svg width="26" height="24" viewBox="0 0 26 24" fill="none" xmlns="http://www.w3.org/2000/svg">
<path d="M14.575 0.749999C8.21254 0.574999 3.00004 5.6875 3.00004 12H0.762538C0.200038 12 -0.0749619 12.675 0.325038 13.0625L3.81254 16.5625C4.06254 16.8125 4.45004 16.8125 4.70004 16.5625L8.18754 13.0625C8.27392 12.9744 8.33228 12.8627 8.35527 12.7414C8.37826 12.6202 8.36484 12.4949 8.31672 12.3812C8.2686 12.2676 8.18792 12.1708 8.08485 12.1029C7.98178 12.0351 7.86093 11.9993 7.73754 12H5.50004C5.50004 7.125 9.47504 3.1875 14.375 3.25C19.025 3.3125 22.9375 7.225 23 11.875C23.0625 16.7625 19.125 20.75 14.25 20.75C12.2375 20.75 10.375 20.0625 8.90004 18.9C8.66062 18.7114 8.36022 18.6174 8.056 18.6358C7.75177 18.6542 7.46493 18.7839 7.25004 19C6.72504 19.525 6.76254 20.4125 7.35004 20.8625C9.31394 22.4156 11.7463 23.2572 14.25 23.25C20.5625 23.25 25.675 18.0375 25.5 11.675C25.3375 5.8125 20.4375 0.912499 14.575 0.749999ZM13.9375 7C13.425 7 13 7.425 13 7.9375V12.5375C13 12.975 13.2375 13.3875 13.6125 13.6125L17.5125 15.925C17.9625 16.1875 18.5375 16.0375 18.8 15.6C19.0625 15.15 18.9125 14.575 18.475 14.3125L14.875 12.175V7.925C14.875 7.425 14.45 7 13.9375 7Z" fill="#D9BB97"/>
</svg>
