<svg width="20" height="23" viewBox="0 0 20 23" fill="none" xmlns="http://www.w3.org/2000/svg">
<path d="M1 19.7512V19.75V8.5C1 8.25986 1.0524 8.03827 1.16026 7.82306C1.26867 7.60673 1.41126 7.43883 1.59239 7.30565L1.59242 7.30569L1.6 7.3L9.09354 1.67985C9.24413 1.57108 9.39103 1.49667 9.53498 1.44868C9.68019 1.40028 9.83363 1.375 10 1.375C10.1664 1.375 10.3198 1.40028 10.465 1.44868C10.609 1.49667 10.7559 1.57108 10.9065 1.67985L18.4 7.3L18.4 7.30005L18.4086 7.3064C18.5903 7.43966 18.7329 7.60736 18.841 7.82306C18.9485 8.03763 19.0005 8.25847 19 8.49789V8.5V19.75C19 20.1699 18.862 20.505 18.5579 20.8091C18.2538 21.1132 17.9195 21.2505 17.5012 21.25H17.5H13.5V13.5V12.5H12.5H7.5H6.5V13.5V21.25H2.5C2.08008 21.25 1.745 21.112 1.44086 20.8079C1.13676 20.5038 0.999494 20.1695 1 19.7512Z" stroke="#00529B" stroke-width="2"/>
</svg>
