<svg width="40" height="40" viewBox="0 0 40 40" fill="none" xmlns="http://www.w3.org/2000/svg">
<rect width="40" height="40" rx="6" fill="#00529B"/>
<g clip-path="url(#clip0_69_66)">
<path fill-rule="evenodd" clip-rule="evenodd" d="M23.7501 28.75C23.7503 29.3807 23.512 29.9882 23.0832 30.4507C22.6543 30.9132 22.0665 31.1964 21.4376 31.2438L21.2501 31.25H18.7501C18.1193 31.2502 17.5118 31.012 17.0494 30.5831C16.5869 30.1543 16.3036 29.5664 16.2563 28.9375L16.2501 28.75H23.7501ZM20.0001 7.5C22.2688 7.49996 24.4488 8.38112 26.0803 9.95759C27.7119 11.5341 28.6673 13.6826 28.7451 15.95L28.7501 16.25V20.955L31.0276 25.51C31.127 25.7088 31.1767 25.9286 31.1725 26.1508C31.1684 26.373 31.1104 26.5908 31.0036 26.7857C30.8968 26.9806 30.7444 27.1467 30.5594 27.2698C30.3744 27.3929 30.1623 27.4693 29.9413 27.4925L29.7976 27.5H10.2026C9.98026 27.5001 9.76126 27.4462 9.56433 27.3431C9.3674 27.24 9.1984 27.0907 9.07183 26.9079C8.94525 26.7252 8.86486 26.5145 8.83756 26.2939C8.81026 26.0733 8.83685 25.8493 8.91505 25.6413L8.97255 25.51L11.2501 20.955V16.25C11.2501 13.9294 12.1719 11.7038 13.8129 10.0628C15.4538 8.42187 17.6794 7.5 20.0001 7.5ZM20.0001 10C18.3895 10.0001 16.8411 10.6219 15.6778 11.7358C14.5146 12.8497 13.8262 14.3697 13.7563 15.9788L13.7501 16.25V20.955C13.7501 21.265 13.6924 21.5723 13.5801 21.8612L13.4863 22.0738L12.0238 25H27.9776L26.5151 22.0725C26.3763 21.7953 26.2903 21.4948 26.2613 21.1863L26.2501 20.955V16.25C26.2501 14.5924 25.5916 13.0027 24.4195 11.8306C23.2474 10.6585 21.6577 10 20.0001 10Z" fill="white"/>
</g>
<defs>
<clipPath id="clip0_69_66">
<rect width="30" height="30" fill="white" transform="translate(5 5)"/>
</clipPath>
</defs>
</svg>
