<svg width="37" height="37" viewBox="0 0 37 37" fill="none" xmlns="http://www.w3.org/2000/svg">
<rect width="37" height="37" rx="6" fill="#00529B"/>
<path d="M13 27V23H9V17C9 16.15 9.29167 15.4373 9.875 14.862C10.4583 14.2867 11.1667 13.9993 12 14H26C26.85 14 27.5627 14.2877 28.138 14.863C28.7133 15.4383 29.0007 16.1507 29 17V17.75C28.55 17.5167 28.079 17.3333 27.587 17.2C27.095 17.0667 26.591 17 26.075 17C24.775 17 23.5957 17.3667 22.537 18.1C21.4783 18.8333 20.716 19.8 20.25 21H15V25H20.1C20.2167 25.3667 20.3583 25.7167 20.525 26.05C20.6917 26.3833 20.8917 26.7 21.125 27H13ZM13 13V9H25V13H13ZM24.95 26.175L22.1 23.35L23.525 21.95L24.95 23.35L28.475 19.825L29.9 21.225L24.95 26.175Z" fill="white"/>
</svg>
