<svg width="410" height="405" viewBox="0 0 410 405" fill="none" xmlns="http://www.w3.org/2000/svg">
<path d="M410 308.568H0V308.773H410V308.568Z" fill="#EBEBEB"/>
<path d="M368.918 321.762H341.76V321.967H368.918V321.762Z" fill="#EBEBEB"/>
<path d="M271.6 323.992H264.475V324.197H271.6V323.992Z" fill="#EBEBEB"/>
<path d="M340.94 314.152H325.204V314.357H340.94V314.152Z" fill="#EBEBEB"/>
<path d="M78.433 315.53H43.0172V315.735H78.433V315.53Z" fill="#EBEBEB"/>
<path d="M90.9298 315.53H85.7392V315.735H90.9298V315.53Z" fill="#EBEBEB"/>
<path d="M184.623 318.99H107.805V319.195H184.623V318.99Z" fill="#EBEBEB"/>
<path d="M194.34 271.996H36.0062C34.7658 271.994 33.577 271.5 32.7007 270.622C31.8244 269.744 31.3322 268.554 31.3322 267.314V44.7412C31.343 43.5079 31.84 42.3287 32.7151 41.4597C33.5902 40.5907 34.7729 40.1021 36.0062 40.1H194.34C195.582 40.1 196.773 40.5933 197.651 41.4714C198.529 42.3495 199.022 43.5404 199.022 44.7822V267.314C199.022 268.556 198.529 269.747 197.651 270.625C196.773 271.503 195.582 271.996 194.34 271.996ZM36.0062 40.264C34.8202 40.2662 33.6835 40.7388 32.8457 41.5782C32.0078 42.4176 31.5372 43.5552 31.5372 44.7412V267.314C31.5372 268.5 32.0078 269.637 32.8457 270.477C33.6835 271.316 34.8202 271.789 36.0062 271.791H194.34C195.527 271.789 196.664 271.316 197.503 270.477C198.343 269.638 198.815 268.501 198.817 267.314V44.7412C198.815 43.5544 198.343 42.4169 197.503 41.5777C196.664 40.7386 195.527 40.2662 194.34 40.264H36.0062Z" fill="#EBEBEB"/>
<path d="M371.714 271.996H213.372C212.131 271.994 210.941 271.5 210.064 270.622C209.186 269.745 208.692 268.555 208.69 267.314V44.7412C208.703 43.5072 209.202 42.328 210.078 41.4592C210.955 40.5905 212.138 40.1021 213.372 40.1H371.714C372.946 40.1043 374.127 40.5939 375 41.4626C375.873 42.3314 376.369 43.5094 376.38 44.7412V267.314C376.38 268.553 375.889 269.741 375.014 270.619C374.14 271.496 372.953 271.992 371.714 271.996ZM213.372 40.264C212.185 40.2662 211.048 40.7386 210.209 41.5777C209.37 42.4169 208.897 43.5544 208.895 44.7412V267.314C208.897 268.501 209.37 269.638 210.209 270.477C211.048 271.316 212.185 271.789 213.372 271.791H371.714C372.901 271.789 374.038 271.316 374.878 270.477C375.717 269.638 376.189 268.501 376.191 267.314V44.7412C376.189 43.5544 375.717 42.4169 374.878 41.5777C374.038 40.7386 372.901 40.2662 371.714 40.264H213.372Z" fill="#EBEBEB"/>
<path d="M182.606 145.659H54.243V308.199H182.606V145.659Z" fill="#F0F0F0"/>
<path d="M178.063 151.587H58.7776V186.347H178.063V151.587Z" fill="#E0E0E0"/>
<path d="M65.5508 157.212H58.7776V186.339H65.5508V157.212Z" fill="#EBEBEB"/>
<path d="M98.318 157.212H91.5448V186.339H98.318V157.212Z" fill="#EBEBEB"/>
<path d="M135.513 156.473L128.839 157.623L133.786 186.327L140.461 185.176L135.513 156.473Z" fill="#EBEBEB"/>
<path d="M73.9476 161.05H67.1744V186.339H73.9476V161.05Z" fill="#EBEBEB"/>
<path d="M89.5194 161.05H82.7462V186.339H89.5194V161.05Z" fill="#EBEBEB"/>
<path d="M128.83 161.05H122.057V186.339H128.83V161.05Z" fill="#EBEBEB"/>
<path d="M107.216 160.178L100.604 161.648L106.091 186.334L112.703 184.865L107.216 160.178Z" fill="#EBEBEB"/>
<path d="M79.8106 155.761H76.424V186.339H79.8106V155.761Z" fill="#EBEBEB"/>
<path d="M120.114 155.761H116.727V186.339H120.114V155.761Z" fill="#EBEBEB"/>
<path d="M58.7776 226.601L178.063 226.601V191.841H58.7776V226.601Z" fill="#E0E0E0"/>
<path d="M171.29 226.601H178.063V197.474H171.29V226.601Z" fill="#EBEBEB"/>
<path d="M138.523 226.601H145.296V197.474H138.523V226.601Z" fill="#EBEBEB"/>
<path d="M96.381 225.454L103.056 226.605L108.003 197.902L101.329 196.751L96.381 225.454Z" fill="#EBEBEB"/>
<path d="M162.885 226.601H169.658V201.312H162.885V226.601Z" fill="#EBEBEB"/>
<path d="M147.321 226.601H154.094V201.312H147.321V226.601Z" fill="#EBEBEB"/>
<path d="M108.002 226.601H114.775V201.312H108.002V226.601Z" fill="#EBEBEB"/>
<path d="M124.148 225.125L130.759 226.595L136.246 201.908L129.634 200.439L124.148 225.125Z" fill="#EBEBEB"/>
<path d="M157.03 226.601H160.417V196.023H157.03V226.601Z" fill="#EBEBEB"/>
<path d="M116.727 226.601H120.114V196.023H116.727V226.601Z" fill="#EBEBEB"/>
<path d="M65.5508 197.474H58.7776V226.601H65.5508V197.474Z" fill="#EBEBEB"/>
<path d="M73.9476 201.312H67.1744V226.601H73.9476V201.312Z" fill="#EBEBEB"/>
<path d="M89.5194 201.312H82.7462V226.601H89.5194V201.312Z" fill="#EBEBEB"/>
<path d="M79.8106 196.023H76.424V226.601H79.8106V196.023Z" fill="#EBEBEB"/>
<path d="M178.063 232.103H58.7776V266.863H178.063V232.103Z" fill="#E0E0E0"/>
<path d="M134.013 237.728H127.239V266.855H134.013V237.728Z" fill="#EBEBEB"/>
<path d="M171.214 236.994L164.54 238.145L169.487 266.848L176.162 265.698L171.214 236.994Z" fill="#EBEBEB"/>
<path d="M109.642 241.574H102.869V266.863H109.642V241.574Z" fill="#EBEBEB"/>
<path d="M125.222 241.574H118.449V266.863H125.222V241.574Z" fill="#EBEBEB"/>
<path d="M164.533 241.574H157.76V266.863H164.533V241.574Z" fill="#EBEBEB"/>
<path d="M142.925 240.698L136.313 242.168L141.8 266.854L148.412 265.385L142.925 240.698Z" fill="#EBEBEB"/>
<path d="M115.505 236.285H112.119V266.863H115.505V236.285Z" fill="#EBEBEB"/>
<path d="M155.808 236.285H152.422V266.863H155.808V236.285Z" fill="#EBEBEB"/>
<path d="M93.2584 237.002L86.5836 238.152L91.5312 266.856L98.206 265.705L93.2584 237.002Z" fill="#EBEBEB"/>
<path d="M86.5756 241.574H79.8024V266.863H86.5756V241.574Z" fill="#EBEBEB"/>
<path d="M64.9631 240.703L58.3513 242.172L63.8377 266.859L70.4496 265.389L64.9631 240.703Z" fill="#EBEBEB"/>
<path d="M77.8508 236.285H74.4642V266.863H77.8508V236.285Z" fill="#EBEBEB"/>
<path d="M250.33 211.177H322.67C324.538 211.177 326.389 211.545 328.114 212.262C329.84 212.978 331.408 214.028 332.727 215.351C334.046 216.674 335.092 218.245 335.803 219.972C336.514 221.7 336.878 223.551 336.872 225.42V281.902H236.16V225.42C236.151 221.653 237.639 218.036 240.296 215.365C242.953 212.694 246.562 211.187 250.33 211.177Z" fill="#E6E6E6"/>
<path d="M214.742 253.046H227.681C228.794 253.041 229.896 253.257 230.925 253.68C231.954 254.103 232.89 254.725 233.678 255.511C234.465 256.296 235.09 257.23 235.516 258.258C235.942 259.286 236.161 260.387 236.16 261.5V308.24H206.296V261.5C206.295 260.39 206.512 259.291 206.936 258.265C207.36 257.24 207.982 256.308 208.767 255.522C209.551 254.737 210.482 254.114 211.508 253.689C212.533 253.265 213.632 253.046 214.742 253.046Z" fill="#E0E0E0"/>
<path d="M214.742 253.046H215.012C216.122 253.046 217.221 253.265 218.246 253.69C219.272 254.114 220.203 254.737 220.987 255.522C221.772 256.308 222.394 257.24 222.818 258.265C223.242 259.291 223.459 260.39 223.458 261.5V308.24H206.296V261.5C206.295 260.39 206.512 259.291 206.936 258.265C207.36 257.24 207.982 256.308 208.767 255.522C209.551 254.737 210.482 254.114 211.508 253.69C212.533 253.265 213.632 253.046 214.742 253.046Z" fill="#EBEBEB"/>
<path d="M326.335 286.74H227.066V308.199H326.335V286.74Z" fill="#E6E6E6"/>
<path d="M322.662 267.117H226.927C222.185 267.117 218.341 270.961 218.341 275.702V281.041C218.341 285.782 222.185 289.626 226.927 289.626H322.662C327.403 289.626 331.247 285.782 331.247 281.041V275.702C331.247 270.961 327.403 267.117 322.662 267.117Z" fill="#F5F5F5"/>
<path d="M322.498 267.117H310.632C305.891 267.117 302.047 270.961 302.047 275.702V281.041C302.047 285.782 305.891 289.626 310.632 289.626H322.498C327.239 289.626 331.083 285.782 331.083 281.041V275.702C331.083 270.961 327.239 267.117 322.498 267.117Z" fill="#E0E0E0"/>
<path d="M323.785 253.046H336.733C337.842 253.046 338.941 253.265 339.966 253.69C340.991 254.115 341.922 254.738 342.705 255.523C343.489 256.308 344.11 257.24 344.533 258.266C344.956 259.292 345.173 260.391 345.171 261.5V308.24H315.347V261.5C315.345 260.391 315.562 259.292 315.985 258.266C316.408 257.24 317.029 256.308 317.813 255.523C318.597 254.738 319.528 254.115 320.552 253.69C321.577 253.265 322.676 253.046 323.785 253.046Z" fill="#E0E0E0"/>
<path d="M323.785 253.046H324.064C325.173 253.046 326.272 253.265 327.297 253.69C328.322 254.115 329.253 254.738 330.036 255.523C330.82 256.308 331.441 257.24 331.864 258.266C332.287 259.292 332.504 260.391 332.502 261.5V308.24H315.347V261.5C315.345 260.391 315.562 259.292 315.985 258.266C316.408 257.24 317.029 256.308 317.813 255.523C318.597 254.738 319.528 254.115 320.552 253.69C321.577 253.265 322.676 253.046 323.785 253.046Z" fill="#F0F0F0"/>
<path d="M123.21 125.9C133.737 124.191 140.886 114.271 139.177 103.744C137.468 93.2166 127.549 86.0677 117.021 87.7766C106.494 89.4854 99.3452 99.4048 101.054 109.932C102.763 120.46 112.682 127.608 123.21 125.9Z" fill="#E0E0E0"/>
<path d="M122.747 123.05C131.701 121.597 137.781 113.16 136.328 104.206C134.875 95.2526 126.438 89.1723 117.484 90.6257C108.53 92.0791 102.45 100.516 103.903 109.47C105.357 118.424 113.793 124.504 122.747 123.05Z" fill="#F0F0F0"/>
<path d="M119.335 118.115V106.635L111.733 110.94" fill="#F0F0F0"/>
<path d="M119.335 118.935C119.117 118.935 118.909 118.848 118.755 118.695C118.601 118.541 118.515 118.332 118.515 118.115V108.037L112.135 111.653C111.946 111.759 111.722 111.786 111.513 111.728C111.304 111.669 111.127 111.531 111.02 111.342C110.913 111.153 110.885 110.93 110.942 110.721C110.998 110.513 111.136 110.335 111.323 110.226L118.933 105.921C119.057 105.851 119.198 105.815 119.341 105.816C119.484 105.817 119.625 105.856 119.748 105.928C119.872 106 119.974 106.103 120.045 106.227C120.117 106.351 120.154 106.492 120.155 106.635V118.115C120.155 118.332 120.068 118.541 119.914 118.695C119.761 118.848 119.552 118.935 119.335 118.935Z" fill="#E0E0E0"/>
<path d="M351.46 82.4776H227.845V192.169H351.46V82.4776Z" fill="#E6E6E6"/>
<path d="M348.205 85.487H230.937V189.225H348.205V85.487Z" fill="#F0F0F0"/>
<path d="M258.456 85.487L230.937 188.996V140.361L245.467 85.487H258.456Z" fill="white"/>
<path d="M268.206 85.487L240.44 189.225H236.012L263.778 85.487H268.206Z" fill="white"/>
<path d="M348.205 150.948V167.52L342.588 189.225H338.16L348.205 150.948Z" fill="white"/>
<path d="M271.838 83.6256H269.862V191.546H271.838V83.6256Z" fill="#E6E6E6"/>
<path d="M310.124 83.6256H308.148V191.546H310.124V83.6256Z" fill="#E6E6E6"/>
<path d="M205 345.599C292.808 345.599 363.99 341.443 363.99 336.317C363.99 331.19 292.808 327.034 205 327.034C117.192 327.034 46.0102 331.19 46.0102 336.317C46.0102 341.443 117.192 345.599 205 345.599Z" fill="#F5F5F5"/>
<path d="M329.558 315.809C329.558 315.809 333.453 307.313 329 298.933C324.548 290.553 323.26 288.585 326.098 286.863C328.935 285.141 330.239 293.57 330.239 293.57C331.641 289.764 331.785 285.607 330.649 281.713C328.681 275.653 327.442 265.78 330.132 264.723C332.822 263.665 330.649 277.023 332.994 281.598C334.183 278.396 334.952 275.052 335.282 271.652C335.601 266.781 335.101 259.007 337.225 257.015C339.349 255.022 340.718 256.4 338.627 267.142C337.37 273.563 336.676 280.082 336.553 286.625C336.553 286.625 341.169 272.529 344.277 272.119C347.385 271.709 347.377 276.268 344.72 280.229C342.063 284.189 336.938 291.282 336.102 294.931C336.102 294.931 341.177 284.321 345.737 287.551C350.296 290.782 341.768 297.203 337.963 299.523C334.158 301.844 331.518 316.342 331.518 316.342L329.558 315.809Z" fill="#00529B"/>
<path opacity="0.2" d="M329.558 315.809C329.558 315.809 333.453 307.313 329 298.933C324.548 290.553 323.26 288.585 326.098 286.863C328.935 285.141 330.239 293.57 330.239 293.57C331.641 289.764 331.785 285.607 330.649 281.713C328.681 275.653 327.442 265.78 330.132 264.723C332.822 263.665 330.649 277.023 332.994 281.598C334.183 278.396 334.952 275.052 335.282 271.652C335.601 266.781 335.101 259.007 337.225 257.015C339.349 255.022 340.718 256.4 338.627 267.142C337.37 273.563 336.676 280.082 336.553 286.625C336.553 286.625 341.169 272.529 344.277 272.119C347.385 271.709 347.377 276.268 344.72 280.229C342.063 284.189 336.938 291.282 336.102 294.931C336.102 294.931 341.177 284.321 345.737 287.551C350.296 290.782 341.768 297.203 337.963 299.523C334.158 301.844 331.518 316.342 331.518 316.342L329.558 315.809Z" fill="black"/>
<path d="M332.633 319.294C332.633 319.294 328.836 310.741 333.387 302.426C337.938 294.111 339.25 292.16 336.438 290.405C333.625 288.65 332.215 297.047 332.215 297.047C330.856 293.226 330.761 289.069 331.944 285.19C333.986 279.155 335.347 269.298 332.666 268.199C329.984 267.101 332.002 280.499 329.607 285.034C328.455 281.815 327.725 278.461 327.434 275.055C327.172 270.184 327.77 262.418 325.663 260.393C323.556 258.368 322.178 259.729 324.146 270.504C325.324 276.938 325.939 283.462 325.983 290.003C325.983 290.003 321.53 275.842 318.439 275.391C315.347 274.94 315.29 279.491 317.898 283.492C320.505 287.494 325.54 294.661 326.36 298.318C326.36 298.318 321.44 287.658 316.815 290.823C312.19 293.988 320.669 300.532 324.441 302.91C328.213 305.288 330.69 319.827 330.69 319.827L332.633 319.294Z" fill="#00529B"/>
<path d="M315.134 313.193H346.466L343.933 335.62H317.668L315.134 313.193Z" fill="#263238"/>
<path d="M198.932 332.02V334.964C198.932 335.051 198.915 335.137 198.881 335.218C198.848 335.299 198.799 335.372 198.737 335.433C198.676 335.495 198.603 335.544 198.522 335.577C198.441 335.611 198.355 335.628 198.268 335.628H115.103C114.394 335.628 113.696 335.454 113.069 335.122C112.443 334.789 111.907 334.308 111.51 333.72C111.112 333.133 110.865 332.457 110.79 331.751C110.714 331.046 110.813 330.333 111.077 329.675L137.432 264.403L180.023 264.69L178.571 273.16L169.174 327.977C169.104 328.393 169.125 328.819 169.236 329.225C169.347 329.632 169.545 330.009 169.817 330.332C170.088 330.654 170.427 330.913 170.808 331.092C171.19 331.27 171.606 331.363 172.028 331.364H198.268C198.355 331.363 198.441 331.379 198.521 331.412C198.602 331.444 198.675 331.492 198.737 331.553C198.799 331.614 198.848 331.687 198.881 331.767C198.915 331.847 198.932 331.933 198.932 332.02Z" fill="#263238"/>
<path opacity="0.5" d="M198.932 332.02V334.964C198.932 335.051 198.915 335.137 198.881 335.218C198.848 335.299 198.799 335.372 198.737 335.433C198.676 335.495 198.603 335.544 198.522 335.577C198.441 335.611 198.355 335.628 198.268 335.628H115.103C114.394 335.628 113.696 335.454 113.069 335.122C112.443 334.789 111.907 334.308 111.51 333.72C111.112 333.133 110.865 332.457 110.79 331.751C110.714 331.046 110.813 330.333 111.077 329.675L127.42 289.208L137.432 264.403L180.023 264.69L178.571 273.16L174.471 296.998L169.166 327.977C169.096 328.393 169.117 328.819 169.228 329.225C169.339 329.632 169.537 330.009 169.808 330.332C170.08 330.654 170.418 330.913 170.8 331.092C171.182 331.27 171.598 331.363 172.02 331.364H198.26C198.347 331.362 198.434 331.377 198.516 331.409C198.597 331.441 198.671 331.489 198.734 331.55C198.797 331.611 198.847 331.684 198.881 331.765C198.915 331.846 198.932 331.932 198.932 332.02Z" fill="white"/>
<path opacity="0.2" d="M172.028 331.356H117.908C117.596 331.355 117.289 331.277 117.014 331.13C116.74 330.983 116.505 330.77 116.332 330.511C116.159 330.252 116.052 329.954 116.02 329.644C115.989 329.333 116.035 329.02 116.153 328.732L139.261 273.152H178.563L169.166 327.969C169.096 328.385 169.117 328.812 169.228 329.219C169.34 329.626 169.539 330.004 169.811 330.327C170.084 330.649 170.423 330.908 170.806 331.086C171.189 331.264 171.606 331.356 172.028 331.356Z" fill="black"/>
<path opacity="0.1" d="M180.023 264.682L178.571 273.152L174.48 296.99L127.42 289.208L137.432 264.395L180.023 264.682Z" fill="black"/>
<path d="M262.835 143.01H65.6656C65.0034 143.01 64.3476 143.14 63.7357 143.394C63.1239 143.647 62.568 144.019 62.0997 144.487C61.6314 144.955 61.2599 145.511 61.0065 146.123C60.7531 146.735 60.6226 147.391 60.6226 148.053V281.541C60.6226 282.878 61.1539 284.161 62.0997 285.107C63.0454 286.052 64.3281 286.584 65.6656 286.584H262.835C264.173 286.584 265.456 286.053 266.403 285.107C267.351 284.162 267.884 282.879 267.886 281.541V148.053C267.884 146.715 267.351 145.432 266.403 144.487C265.456 143.541 264.173 143.01 262.835 143.01Z" fill="#263238"/>
<path opacity="0.6" d="M262.835 143.01H65.6656C65.0034 143.01 64.3476 143.14 63.7357 143.394C63.1239 143.647 62.568 144.019 62.0997 144.487C61.6314 144.955 61.2599 145.511 61.0065 146.123C60.7531 146.735 60.6226 147.391 60.6226 148.053V281.541C60.6226 282.878 61.1539 284.161 62.0997 285.107C63.0454 286.052 64.3281 286.584 65.6656 286.584H262.835C264.173 286.584 265.456 286.053 266.403 285.107C267.351 284.162 267.884 282.879 267.886 281.541V148.053C267.884 146.715 267.351 145.432 266.403 144.487C265.456 143.541 264.173 143.01 262.835 143.01Z" fill="white"/>
<path opacity="0.2" d="M69.8476 286.576H65.6656C64.3296 286.576 63.0481 286.045 62.1026 285.101C61.1571 284.157 60.6248 282.877 60.6226 281.541V148.061C60.6215 147.398 60.7512 146.742 61.0041 146.129C61.2571 145.516 61.6284 144.959 62.0968 144.49C62.5652 144.021 63.1215 143.649 63.7339 143.395C64.3462 143.141 65.0027 143.01 65.6656 143.01H69.8476C69.1826 143.007 68.5235 143.135 67.9083 143.388C67.2931 143.64 66.7339 144.012 66.2629 144.481C65.7919 144.951 65.4184 145.509 65.1639 146.123C64.9094 146.738 64.7789 147.396 64.78 148.061V281.541C64.78 282.205 64.9113 282.862 65.1664 283.475C65.4215 284.088 65.7953 284.645 66.2663 285.113C66.7373 285.581 67.2962 285.951 67.9108 286.202C68.5255 286.453 69.1837 286.58 69.8476 286.576Z" fill="black"/>
<path d="M263.343 147.348H69.3557V276.063H263.343V147.348Z" fill="#00529B"/>
<path opacity="0.4" d="M163.672 196.343C172.974 196.343 180.515 188.802 180.515 179.5C180.515 170.198 172.974 162.657 163.672 162.657C154.37 162.657 146.829 170.198 146.829 179.5C146.829 188.802 154.37 196.343 163.672 196.343Z" fill="white"/>
<path d="M159.654 176.942V175.4C159.654 174.665 159.946 173.96 160.466 173.44C160.986 172.92 161.691 172.628 162.426 172.628H164.886C165.252 172.624 165.616 172.693 165.956 172.83C166.296 172.967 166.606 173.171 166.867 173.429C167.127 173.686 167.335 173.993 167.476 174.332C167.617 174.67 167.69 175.033 167.69 175.4V176.974H169.486V175.4C169.484 174.189 169.002 173.029 168.146 172.173C167.29 171.317 166.129 170.835 164.918 170.833H162.458C161.248 170.835 160.087 171.317 159.231 172.173C158.375 173.029 157.893 174.189 157.891 175.4V176.974L159.654 176.942Z" fill="white"/>
<path d="M155.595 179.016V187.29C155.595 187.411 155.619 187.53 155.665 187.641C155.711 187.753 155.779 187.854 155.864 187.939C155.949 188.025 156.05 188.092 156.162 188.139C156.273 188.185 156.393 188.208 156.513 188.208H170.831C170.951 188.208 171.071 188.185 171.182 188.139C171.293 188.092 171.395 188.025 171.48 187.939C171.565 187.854 171.633 187.753 171.679 187.641C171.725 187.53 171.749 187.411 171.749 187.29V179.016C171.749 178.773 171.652 178.539 171.48 178.367C171.308 178.195 171.074 178.098 170.831 178.098H156.513C156.393 178.098 156.273 178.122 156.162 178.168C156.05 178.214 155.949 178.282 155.864 178.367C155.779 178.452 155.711 178.553 155.665 178.665C155.619 178.776 155.595 178.896 155.595 179.016ZM164.189 183.698V185.338H163.18V183.698C163.032 183.616 162.908 183.498 162.819 183.354C162.73 183.211 162.68 183.047 162.672 182.878C162.672 182.607 162.78 182.346 162.972 182.154C163.164 181.961 163.425 181.853 163.697 181.853C163.968 181.853 164.229 181.961 164.421 182.154C164.614 182.346 164.722 182.607 164.722 182.878C164.711 183.049 164.657 183.215 164.563 183.359C164.47 183.502 164.341 183.619 164.189 183.698Z" fill="white"/>
<path d="M122.582 210.291H106.674C105.727 210.291 104.96 211.058 104.96 212.005V227.913C104.96 228.859 105.727 229.627 106.674 229.627H122.582C123.528 229.627 124.296 228.859 124.296 227.913V212.005C124.296 211.058 123.528 210.291 122.582 210.291Z" fill="white"/>
<path d="M147.108 210.266H131.2C130.253 210.266 129.486 211.034 129.486 211.98V227.888C129.486 228.835 130.253 229.602 131.2 229.602H147.108C148.055 229.602 148.822 228.835 148.822 227.888V211.98C148.822 211.034 148.055 210.266 147.108 210.266Z" fill="white"/>
<path d="M171.626 210.242H155.718C154.772 210.242 154.004 211.009 154.004 211.956V227.864C154.004 228.81 154.772 229.577 155.718 229.577H171.626C172.573 229.577 173.34 228.81 173.34 227.864V211.956C173.34 211.009 172.573 210.242 171.626 210.242Z" fill="white"/>
<path d="M196.144 210.209H180.236C179.29 210.209 178.522 210.976 178.522 211.923V227.831C178.522 228.777 179.29 229.545 180.236 229.545H196.144C197.091 229.545 197.858 228.777 197.858 227.831V211.923C197.858 210.976 197.091 210.209 196.144 210.209Z" fill="white"/>
<path d="M220.662 210.184H204.754C203.808 210.184 203.04 210.952 203.04 211.898V227.806C203.04 228.753 203.808 229.52 204.754 229.52H220.662C221.609 229.52 222.376 228.753 222.376 227.806V211.898C222.376 210.952 221.609 210.184 220.662 210.184Z" fill="white"/>
<path d="M208.452 220.229C208.452 216.826 210.273 214.891 212.716 214.891C215.16 214.891 216.972 216.826 216.972 220.229C216.972 223.632 215.152 225.568 212.716 225.568C210.281 225.568 208.452 223.632 208.452 220.229ZM215.48 220.229C215.48 217.556 214.34 216.22 212.716 216.22C211.093 216.22 209.945 217.556 209.945 220.229C209.945 222.903 211.076 224.239 212.716 224.239C214.356 224.239 215.48 222.894 215.48 220.229Z" fill="#263238"/>
<path d="M118.515 220.098C118.515 223.657 116.497 225.568 113.595 225.568C112.689 225.6 111.791 225.388 110.995 224.953L111.52 223.78C112.129 224.132 112.826 224.303 113.529 224.272C115.645 224.272 116.989 222.944 116.989 220.328V219.959C116.64 220.417 116.181 220.781 115.656 221.019C115.131 221.256 114.555 221.36 113.98 221.32C111.905 221.32 110.413 220.082 110.413 218.163C110.413 216.244 112.053 214.883 114.095 214.883C116.932 214.891 118.515 216.769 118.515 220.098ZM116.678 218.114C116.678 217.04 115.858 216.097 114.218 216.097C113.931 216.062 113.64 216.088 113.363 216.174C113.087 216.26 112.833 216.403 112.616 216.594C112.399 216.786 112.225 217.021 112.105 217.284C111.986 217.547 111.923 217.833 111.922 218.122C111.922 219.352 112.832 220.139 114.3 220.139C115.768 220.139 116.678 219.262 116.678 218.114Z" fill="#263238"/>
<path d="M134.89 220.229C134.89 216.826 136.71 214.891 139.154 214.891C141.598 214.891 143.41 216.826 143.41 220.229C143.41 223.632 141.589 225.568 139.154 225.568C136.719 225.568 134.89 223.632 134.89 220.229ZM141.917 220.229C141.917 217.556 140.786 216.22 139.154 216.22C137.522 216.22 136.382 217.556 136.382 220.229C136.382 222.903 137.514 224.239 139.154 224.239C140.794 224.239 141.917 222.903 141.917 220.229Z" fill="#263238"/>
<path d="M167.444 224.149V225.42H159.941V224.436L164.189 220.336C165.296 219.262 165.501 218.606 165.501 217.95C165.501 216.876 164.746 216.22 163.278 216.22C162.777 216.192 162.276 216.279 161.814 216.475C161.352 216.672 160.941 216.971 160.613 217.351L159.597 216.474C160.076 215.943 160.668 215.526 161.329 215.252C161.99 214.978 162.703 214.855 163.418 214.891C165.591 214.891 166.993 216.006 166.993 217.794C166.993 218.811 166.698 219.721 165.279 221.074L162.089 224.141L167.444 224.149Z" fill="#263238"/>
<path d="M189.42 215.006V225.42H187.944V216.31H185.582V215.006H189.42Z" fill="#263238"/>
<g opacity="0.6">
<path d="M145.329 205.568V205.937H142.483V201.911H145.238V202.28H142.91V203.715H144.984V204.1H142.91V205.592L145.329 205.568Z" fill="white"/>
<path d="M149.019 204.182V205.937H148.609V204.223C148.633 204.096 148.627 203.964 148.591 203.84C148.555 203.715 148.489 203.601 148.401 203.507C148.312 203.412 148.202 203.34 148.08 203.297C147.958 203.253 147.827 203.239 147.698 203.255C147.554 203.245 147.409 203.266 147.274 203.318C147.139 203.37 147.016 203.45 146.916 203.554C146.815 203.658 146.738 203.783 146.69 203.92C146.643 204.056 146.626 204.202 146.641 204.346V205.937H146.239V202.911H146.624V203.469C146.748 203.28 146.919 203.127 147.121 203.026C147.322 202.925 147.547 202.88 147.772 202.895C147.943 202.88 148.115 202.904 148.276 202.964C148.437 203.024 148.582 203.119 148.701 203.242C148.82 203.366 148.911 203.514 148.966 203.676C149.021 203.839 149.039 204.012 149.019 204.182Z" fill="white"/>
<path d="M151.7 205.74C151.52 205.886 151.292 205.962 151.06 205.953C150.942 205.963 150.824 205.947 150.712 205.907C150.601 205.866 150.5 205.802 150.416 205.719C150.331 205.635 150.266 205.534 150.225 205.424C150.183 205.313 150.166 205.194 150.175 205.076V203.28H149.634V202.936H150.175V202.28H150.585V202.936H151.503V203.28H150.585V205.084C150.585 205.445 150.765 205.633 151.101 205.633C151.264 205.638 151.424 205.586 151.552 205.486L151.7 205.74Z" fill="white"/>
<path d="M154.98 204.551H152.454C152.473 204.848 152.609 205.125 152.832 205.321C153.055 205.518 153.347 205.619 153.643 205.601C153.817 205.606 153.99 205.574 154.15 205.506C154.31 205.438 154.453 205.336 154.57 205.207L154.8 205.469C154.576 205.679 154.298 205.822 153.997 205.882C153.696 205.942 153.384 205.916 153.097 205.808C152.81 205.699 152.56 205.512 152.373 205.269C152.187 205.025 152.073 204.733 152.044 204.428C152.033 204.229 152.063 204.029 152.133 203.842C152.202 203.654 152.309 203.483 152.448 203.339C152.586 203.195 152.753 203.081 152.938 203.005C153.122 202.928 153.321 202.891 153.52 202.895C153.72 202.891 153.917 202.928 154.101 203.005C154.285 203.082 154.451 203.196 154.588 203.34C154.725 203.484 154.831 203.655 154.898 203.843C154.966 204.03 154.994 204.229 154.98 204.428C154.98 204.428 154.98 204.502 154.98 204.551ZM152.454 204.248H154.595C154.571 203.98 154.448 203.731 154.25 203.549C154.052 203.368 153.793 203.267 153.525 203.267C153.256 203.267 152.997 203.368 152.799 203.549C152.601 203.731 152.478 203.98 152.454 204.248Z" fill="white"/>
<path d="M157.333 202.895V203.28H157.235C157.091 203.272 156.947 203.297 156.813 203.352C156.68 203.407 156.56 203.49 156.463 203.597C156.366 203.704 156.293 203.831 156.251 203.969C156.209 204.107 156.197 204.252 156.218 204.395V205.937H155.8V202.911H156.194V203.501C156.299 203.296 156.465 203.128 156.669 203.019C156.872 202.911 157.104 202.867 157.333 202.895Z" fill="white"/>
<path d="M162.155 202.911L160.646 206.298C160.392 206.888 160.072 207.077 159.638 207.077C159.504 207.081 159.37 207.059 159.244 207.011C159.119 206.964 159.005 206.891 158.908 206.798L159.096 206.494C159.166 206.57 159.252 206.629 159.346 206.669C159.441 206.708 159.543 206.727 159.646 206.724C159.916 206.724 160.097 206.601 160.269 206.224L160.4 205.929L159.08 202.911H159.506L160.638 205.478L161.778 202.911H162.155Z" fill="white"/>
<path d="M162.36 204.428C162.358 204.123 162.448 203.824 162.616 203.569C162.784 203.315 163.025 203.116 163.306 202.998C163.588 202.88 163.898 202.848 164.197 202.907C164.497 202.965 164.772 203.112 164.989 203.327C165.205 203.542 165.353 203.817 165.413 204.116C165.473 204.415 165.443 204.726 165.327 205.008C165.21 205.29 165.013 205.531 164.759 205.701C164.505 205.871 164.207 205.961 163.902 205.961C163.698 205.969 163.494 205.935 163.304 205.861C163.114 205.787 162.941 205.675 162.797 205.531C162.652 205.387 162.539 205.215 162.464 205.025C162.388 204.835 162.353 204.632 162.36 204.428ZM165.017 204.428C165.007 204.208 164.933 203.995 164.804 203.817C164.674 203.639 164.495 203.502 164.288 203.425C164.082 203.348 163.858 203.333 163.643 203.382C163.428 203.432 163.232 203.543 163.081 203.703C162.929 203.863 162.827 204.064 162.789 204.281C162.75 204.498 162.776 204.721 162.864 204.923C162.951 205.126 163.096 205.298 163.281 205.418C163.465 205.539 163.681 205.602 163.902 205.601C164.052 205.6 164.2 205.568 164.337 205.508C164.475 205.448 164.598 205.36 164.701 205.25C164.803 205.14 164.881 205.011 164.932 204.869C164.982 204.728 165.002 204.578 164.992 204.428H165.017Z" fill="white"/>
<path d="M168.961 202.911V205.937H168.576V205.379C168.463 205.566 168.303 205.718 168.111 205.821C167.919 205.923 167.703 205.972 167.485 205.961C167.312 205.979 167.137 205.957 166.973 205.897C166.809 205.838 166.661 205.742 166.539 205.618C166.417 205.494 166.325 205.344 166.269 205.179C166.212 205.014 166.194 204.839 166.214 204.666V202.911H166.616V204.625C166.592 204.752 166.598 204.883 166.634 205.008C166.67 205.132 166.735 205.247 166.824 205.341C166.913 205.435 167.023 205.507 167.145 205.551C167.267 205.595 167.398 205.609 167.526 205.592C167.669 205.601 167.811 205.577 167.944 205.525C168.076 205.472 168.196 205.391 168.293 205.287C168.391 205.183 168.465 205.058 168.509 204.923C168.554 204.787 168.568 204.644 168.551 204.502V202.911H168.961Z" fill="white"/>
<path d="M171.626 202.895V203.28H171.528C171.383 203.272 171.239 203.297 171.106 203.352C170.972 203.407 170.853 203.49 170.755 203.597C170.658 203.704 170.586 203.831 170.543 203.969C170.501 204.107 170.49 204.252 170.511 204.395V205.937H170.101V202.911H170.494V203.501C170.599 203.298 170.764 203.13 170.966 203.022C171.168 202.914 171.398 202.869 171.626 202.895Z" fill="white"/>
<path d="M173.635 203.928C173.62 203.507 173.732 203.09 173.955 202.733C174.179 202.376 174.504 202.093 174.889 201.921C175.274 201.75 175.701 201.697 176.116 201.77C176.531 201.844 176.915 202.039 177.219 202.332C177.522 202.624 177.731 203.001 177.819 203.413C177.906 203.826 177.869 204.255 177.711 204.646C177.554 205.037 177.283 205.371 176.933 205.607C176.584 205.843 176.172 205.969 175.751 205.97C175.476 205.981 175.202 205.936 174.945 205.838C174.688 205.741 174.454 205.592 174.256 205.401C174.059 205.21 173.902 204.981 173.795 204.728C173.688 204.475 173.634 204.203 173.635 203.928ZM177.432 203.928C177.441 203.59 177.349 203.257 177.168 202.971C176.986 202.686 176.723 202.462 176.412 202.328C176.101 202.194 175.758 202.157 175.426 202.22C175.093 202.284 174.788 202.446 174.549 202.685C174.31 202.924 174.148 203.229 174.084 203.562C174.021 203.894 174.058 204.237 174.192 204.548C174.326 204.859 174.55 205.122 174.835 205.304C175.12 205.486 175.454 205.578 175.792 205.568C176.227 205.568 176.644 205.395 176.951 205.087C177.259 204.78 177.432 204.363 177.432 203.928Z" fill="white"/>
<path d="M179.531 202.28H178.12V201.911H181.4V202.28H179.982V205.937H179.555L179.531 202.28Z" fill="white"/>
<path d="M185.197 203.28C185.197 204.1 184.574 204.649 183.557 204.649H182.483V205.92H182.04V201.894H183.541C184.574 201.911 185.197 202.46 185.197 203.28ZM184.771 203.28C184.771 202.632 184.344 202.263 183.541 202.263H182.475V204.272H183.541C184.344 204.289 184.771 203.928 184.771 203.28Z" fill="white"/>
</g>
<g opacity="0.6">
<path d="M147.723 240.09L147.887 239.77C148.255 240.09 148.728 240.262 149.215 240.254C149.962 240.254 150.29 239.942 150.29 239.54C150.29 238.442 147.83 239.114 147.83 237.63C147.83 237.039 148.289 236.531 149.306 236.531C149.747 236.525 150.18 236.648 150.552 236.884L150.413 237.22C150.082 237.009 149.698 236.895 149.306 236.892C148.576 236.892 148.248 237.22 148.248 237.622C148.248 238.72 150.708 238.056 150.708 239.516C150.708 240.114 150.24 240.615 149.215 240.615C148.669 240.635 148.136 240.447 147.723 240.09Z" fill="white"/>
<path d="M154.16 239.196H151.634C151.653 239.493 151.789 239.77 152.012 239.966C152.235 240.163 152.527 240.264 152.823 240.246C152.997 240.251 153.17 240.219 153.33 240.151C153.49 240.083 153.633 239.981 153.75 239.852L153.98 240.114C153.835 240.28 153.656 240.41 153.454 240.497C153.253 240.583 153.034 240.624 152.815 240.615C152.607 240.627 152.399 240.596 152.203 240.524C152.008 240.452 151.83 240.339 151.68 240.194C151.53 240.049 151.413 239.875 151.334 239.682C151.256 239.489 151.218 239.281 151.224 239.073C151.214 238.874 151.245 238.675 151.315 238.488C151.385 238.301 151.492 238.131 151.631 237.987C151.769 237.843 151.935 237.729 152.119 237.652C152.303 237.576 152.501 237.537 152.7 237.54C152.9 237.535 153.099 237.571 153.284 237.647C153.468 237.724 153.635 237.838 153.773 237.982C153.911 238.126 154.018 238.298 154.086 238.486C154.154 238.674 154.182 238.874 154.168 239.073C154.168 239.073 154.16 239.155 154.16 239.196ZM151.634 238.893H153.775C153.751 238.625 153.628 238.376 153.43 238.194C153.232 238.013 152.973 237.912 152.705 237.912C152.436 237.912 152.177 238.013 151.979 238.194C151.781 238.376 151.658 238.625 151.634 238.893Z" fill="white"/>
<path d="M157.793 238.827V240.582H157.391V238.868C157.414 238.741 157.406 238.611 157.37 238.488C157.333 238.364 157.267 238.251 157.179 238.158C157.09 238.064 156.981 237.993 156.859 237.95C156.738 237.906 156.608 237.892 156.481 237.909C156.336 237.898 156.191 237.92 156.056 237.971C155.921 238.023 155.798 238.104 155.698 238.207C155.597 238.311 155.52 238.436 155.472 238.573C155.425 238.71 155.408 238.855 155.423 238.999V240.582H154.98V237.564H155.374V238.122C155.496 237.931 155.667 237.777 155.868 237.675C156.07 237.572 156.296 237.526 156.522 237.54C156.694 237.521 156.869 237.542 157.033 237.6C157.197 237.659 157.345 237.753 157.467 237.877C157.59 238.001 157.682 238.15 157.739 238.315C157.795 238.479 157.813 238.654 157.793 238.827Z" fill="white"/>
<path d="M161.671 236.318V240.582H161.278V239.983C161.158 240.183 160.986 240.347 160.782 240.458C160.577 240.569 160.346 240.623 160.113 240.615C159.725 240.586 159.362 240.412 159.096 240.127C158.831 239.842 158.684 239.467 158.684 239.077C158.684 238.688 158.831 238.313 159.096 238.028C159.362 237.742 159.725 237.568 160.113 237.54C160.34 237.532 160.565 237.583 160.766 237.687C160.967 237.792 161.138 237.948 161.261 238.138V236.318H161.671ZM161.269 239.073C161.26 238.853 161.186 238.641 161.057 238.463C160.927 238.285 160.749 238.148 160.543 238.071C160.337 237.993 160.113 237.978 159.898 238.027C159.684 238.075 159.488 238.186 159.336 238.345C159.184 238.504 159.081 238.704 159.042 238.921C159.002 239.137 159.027 239.36 159.114 239.563C159.2 239.765 159.344 239.938 159.527 240.059C159.711 240.181 159.926 240.245 160.146 240.246C160.298 240.248 160.45 240.219 160.59 240.16C160.731 240.102 160.858 240.015 160.964 239.905C161.069 239.795 161.151 239.664 161.203 239.521C161.256 239.378 161.278 239.225 161.269 239.073Z" fill="white"/>
<path d="M166.591 238.712V240.582H166.198V240.114C166.084 240.282 165.927 240.417 165.744 240.505C165.561 240.593 165.358 240.631 165.156 240.615C164.476 240.615 164.057 240.254 164.057 239.729C164.057 239.204 164.353 238.909 165.222 238.909H166.181V238.729C166.193 238.618 166.18 238.506 166.142 238.402C166.105 238.297 166.045 238.202 165.967 238.123C165.888 238.045 165.793 237.984 165.688 237.947C165.583 237.91 165.472 237.897 165.361 237.909C164.992 237.903 164.634 238.031 164.353 238.269L164.172 237.966C164.518 237.689 164.951 237.544 165.394 237.556C165.552 237.537 165.713 237.554 165.864 237.605C166.015 237.656 166.152 237.739 166.267 237.85C166.382 237.961 166.47 238.095 166.526 238.245C166.582 238.394 166.604 238.553 166.591 238.712ZM166.181 239.672V239.18H165.23C164.648 239.18 164.459 239.409 164.459 239.721C164.459 240.032 164.738 240.287 165.222 240.287C165.426 240.3 165.63 240.248 165.803 240.137C165.975 240.026 166.108 239.863 166.181 239.672Z" fill="white"/>
<path d="M170.503 237.564V240.18C170.535 240.385 170.518 240.596 170.454 240.793C170.389 240.991 170.279 241.171 170.132 241.318C169.985 241.465 169.805 241.575 169.607 241.64C169.41 241.704 169.199 241.721 168.994 241.689C168.484 241.709 167.984 241.546 167.583 241.23L167.788 240.918C168.125 241.19 168.545 241.335 168.977 241.328C169.748 241.328 170.093 240.984 170.093 240.237V239.852C169.963 240.041 169.787 240.194 169.582 240.295C169.377 240.397 169.149 240.445 168.92 240.434C168.719 240.449 168.516 240.423 168.326 240.356C168.135 240.289 167.96 240.184 167.812 240.046C167.664 239.909 167.546 239.743 167.465 239.557C167.384 239.372 167.343 239.172 167.343 238.971C167.343 238.769 167.384 238.569 167.465 238.384C167.546 238.198 167.664 238.032 167.812 237.895C167.96 237.757 168.135 237.652 168.326 237.585C168.516 237.518 168.719 237.492 168.92 237.507C169.153 237.496 169.385 237.545 169.593 237.65C169.802 237.755 169.979 237.912 170.109 238.105V237.531L170.503 237.564ZM170.109 238.999C170.117 238.771 170.057 238.545 169.936 238.351C169.815 238.157 169.638 238.003 169.43 237.91C169.221 237.817 168.989 237.788 168.763 237.827C168.538 237.867 168.33 237.973 168.165 238.132C168 238.291 167.887 238.495 167.839 238.719C167.791 238.942 167.812 239.175 167.897 239.388C167.983 239.6 168.13 239.781 168.319 239.91C168.509 240.038 168.732 240.106 168.961 240.106C169.111 240.115 169.261 240.093 169.401 240.041C169.542 239.99 169.67 239.909 169.778 239.805C169.886 239.701 169.971 239.576 170.028 239.437C170.085 239.298 170.113 239.149 170.109 238.999Z" fill="white"/>
<path d="M173.922 238.712V240.582H173.537V240.114C173.422 240.282 173.266 240.416 173.083 240.504C172.9 240.592 172.697 240.63 172.495 240.615C171.806 240.615 171.388 240.254 171.388 239.729C171.388 239.204 171.692 238.909 172.561 238.909H173.512V238.729C173.512 238.212 173.225 237.909 172.692 237.909C172.326 237.904 171.971 238.032 171.692 238.269L171.503 237.966C171.852 237.69 172.288 237.544 172.733 237.556C172.891 237.539 173.05 237.556 173.2 237.608C173.35 237.659 173.487 237.743 173.6 237.854C173.714 237.964 173.802 238.098 173.857 238.247C173.913 238.395 173.935 238.554 173.922 238.712ZM173.512 239.672V239.18H172.569C171.979 239.18 171.79 239.409 171.79 239.721C171.79 240.032 172.077 240.287 172.561 240.287C172.765 240.301 172.967 240.249 173.139 240.138C173.311 240.027 173.441 239.863 173.512 239.672Z" fill="white"/>
<path d="M174.939 236.605C174.951 236.534 174.987 236.47 175.042 236.423C175.097 236.377 175.166 236.351 175.238 236.351C175.31 236.351 175.38 236.377 175.434 236.423C175.489 236.47 175.526 236.534 175.537 236.605C175.526 236.676 175.489 236.74 175.434 236.787C175.38 236.833 175.31 236.859 175.238 236.859C175.166 236.859 175.097 236.833 175.042 236.787C174.987 236.74 174.951 236.676 174.939 236.605ZM175.029 237.564H175.439V240.582H175.029V237.564Z" fill="white"/>
<path d="M179.35 238.827V240.582H178.949V238.868C178.972 238.741 178.964 238.611 178.927 238.488C178.891 238.364 178.825 238.251 178.737 238.158C178.648 238.064 178.539 237.993 178.417 237.95C178.296 237.906 178.166 237.892 178.038 237.909C177.894 237.898 177.749 237.92 177.614 237.971C177.479 238.023 177.356 238.104 177.255 238.207C177.155 238.311 177.078 238.436 177.03 238.573C176.983 238.71 176.966 238.855 176.981 238.999V240.582H176.579V237.564H176.964V238.122C177.086 237.931 177.257 237.777 177.459 237.675C177.661 237.572 177.886 237.526 178.112 237.54C178.283 237.526 178.454 237.551 178.613 237.612C178.773 237.672 178.917 237.768 179.035 237.891C179.154 238.014 179.243 238.162 179.298 238.324C179.352 238.485 179.37 238.657 179.35 238.827Z" fill="white"/>
</g>
<path opacity="0.4" d="M186.517 261.082H140.819C139.013 261.08 137.282 260.361 136.006 259.083C134.729 257.805 134.013 256.073 134.013 254.268C134.013 252.462 134.729 250.73 136.006 249.452C137.282 248.174 139.013 247.456 140.819 247.453H186.517C188.324 247.453 190.058 248.171 191.336 249.449C192.614 250.727 193.331 252.46 193.331 254.268C193.331 256.075 192.614 257.808 191.336 259.086C190.058 260.364 188.324 261.082 186.517 261.082Z" fill="white"/>
<path d="M145.845 253.923C145.841 253.604 145.903 253.287 146.027 252.993C146.15 252.699 146.333 252.433 146.564 252.212C146.795 251.991 147.068 251.821 147.368 251.71C147.667 251.6 147.987 251.552 148.305 251.57C148.631 251.558 148.956 251.617 149.257 251.741C149.558 251.866 149.829 252.053 150.052 252.291L149.625 252.701C149.461 252.524 149.26 252.384 149.036 252.291C148.813 252.197 148.572 252.153 148.33 252.16C148.039 252.163 147.753 252.238 147.498 252.378C147.242 252.518 147.026 252.72 146.868 252.964C146.709 253.208 146.614 253.488 146.59 253.778C146.566 254.068 146.614 254.36 146.73 254.627C146.846 254.894 147.027 255.128 147.256 255.308C147.484 255.488 147.754 255.609 148.041 255.659C148.328 255.71 148.622 255.689 148.899 255.597C149.175 255.506 149.425 255.348 149.625 255.137L150.052 255.547C149.828 255.786 149.556 255.974 149.253 256.098C148.95 256.223 148.624 256.281 148.297 256.268C147.979 256.286 147.661 256.239 147.363 256.129C147.064 256.019 146.792 255.848 146.562 255.629C146.332 255.409 146.149 255.144 146.026 254.85C145.903 254.557 145.841 254.241 145.845 253.923Z" fill="white"/>
<path d="M150.495 253.923C150.472 253.432 150.596 252.946 150.852 252.527C151.108 252.107 151.484 251.774 151.931 251.57C152.378 251.366 152.876 251.301 153.36 251.383C153.845 251.464 154.294 251.689 154.649 252.028C155.005 252.367 155.251 252.805 155.356 253.285C155.46 253.765 155.419 254.265 155.236 254.721C155.054 255.178 154.739 255.569 154.333 255.845C153.926 256.12 153.446 256.268 152.955 256.268C152.637 256.285 152.319 256.237 152.021 256.126C151.722 256.016 151.449 255.846 151.219 255.626C150.989 255.407 150.806 255.142 150.681 254.849C150.557 254.557 150.493 254.241 150.495 253.923ZM154.718 253.923C154.722 253.568 154.622 253.22 154.428 252.923C154.234 252.625 153.956 252.392 153.629 252.253C153.303 252.115 152.942 252.076 152.594 252.143C152.245 252.21 151.924 252.379 151.672 252.629C151.42 252.879 151.248 253.198 151.178 253.546C151.108 253.894 151.143 254.255 151.279 254.583C151.414 254.911 151.645 255.191 151.94 255.387C152.236 255.584 152.583 255.688 152.938 255.686C153.173 255.694 153.406 255.654 153.625 255.568C153.843 255.483 154.042 255.354 154.208 255.188C154.375 255.023 154.506 254.826 154.593 254.608C154.681 254.391 154.723 254.158 154.718 253.923Z" fill="white"/>
<path d="M160.326 251.66V256.252H159.785L157.03 252.824V256.252H156.374V251.66H156.915L159.67 255.079V251.66H160.326Z" fill="white"/>
<path d="M162.614 252.193H161.04V251.66H164.82V252.226H163.262V256.252H162.614V252.193Z" fill="white"/>
<path d="M165.55 251.66H166.206V256.252H165.55V251.66Z" fill="white"/>
<path d="M171.536 251.66V256.252H170.995L168.239 252.824V256.252H167.583V251.66H168.1L170.855 255.079V251.66H171.536Z" fill="white"/>
<path d="M172.872 254.235V251.66H173.528V254.243C173.528 255.26 173.996 255.719 174.824 255.719C175.652 255.719 176.12 255.26 176.12 254.243V251.66H176.759V254.268C176.759 254.783 176.554 255.277 176.19 255.642C175.826 256.006 175.331 256.211 174.816 256.211C174.3 256.211 173.806 256.006 173.442 255.642C173.077 255.277 172.872 254.783 172.872 254.268V254.235Z" fill="white"/>
<path d="M181.433 255.645V256.219H178.104V251.66H181.384V252.226H178.76V253.636H181.056V254.194H178.76V255.678L181.433 255.645Z" fill="white"/>
<path opacity="0.1" d="M243.122 147.946C216.3 174.818 147.411 234.629 69.3557 230.201V147.946H243.122Z" fill="white"/>
<path opacity="0.1" d="M263.335 197.335V276.67H146.55C151.028 260.647 159.982 238.704 177.35 223.026C208.592 194.818 244.852 194.9 263.335 197.335Z" fill="white"/>
<path d="M288.009 135.294L290.731 147.315L293.453 135.294H288.009Z" fill="#00529B"/>
<path opacity="0.7" d="M288.009 135.294L290.731 147.315L293.453 135.294H288.009Z" fill="white"/>
<path d="M321.202 101.256H260.268C256.378 101.256 253.224 104.409 253.224 108.299V130.915C253.224 134.805 256.378 137.959 260.268 137.959H321.202C325.092 137.959 328.246 134.805 328.246 130.915V108.299C328.246 104.409 325.092 101.256 321.202 101.256Z" fill="#00529B"/>
<path opacity="0.7" d="M321.202 101.256H260.268C256.378 101.256 253.224 104.409 253.224 108.299V130.915C253.224 134.805 256.378 137.959 260.268 137.959H321.202C325.092 137.959 328.246 134.805 328.246 130.915V108.299C328.246 104.409 325.092 101.256 321.202 101.256Z" fill="white"/>
<g opacity="0.5">
<path d="M268.206 114.72V116.303H267.558V114.72L265.737 111.735H266.443L267.91 114.195L269.386 111.735H270.034L268.206 114.72Z" fill="#263238"/>
<path d="M269.887 114.572C269.88 114.213 269.981 113.859 270.176 113.557C270.371 113.255 270.652 113.017 270.982 112.875C271.313 112.733 271.678 112.692 272.032 112.758C272.385 112.824 272.711 112.994 272.968 113.247C273.225 113.499 273.401 113.821 273.473 114.174C273.546 114.526 273.512 114.892 273.376 115.225C273.24 115.558 273.008 115.843 272.709 116.044C272.41 116.245 272.059 116.352 271.699 116.352C271.461 116.363 271.223 116.325 271 116.24C270.777 116.155 270.574 116.025 270.404 115.858C270.234 115.691 270.1 115.491 270.011 115.269C269.922 115.048 269.88 114.811 269.887 114.572ZM272.863 114.572C272.877 114.411 272.857 114.248 272.804 114.094C272.751 113.941 272.668 113.8 272.558 113.681C272.448 113.561 272.315 113.466 272.166 113.401C272.017 113.335 271.857 113.302 271.695 113.302C271.532 113.302 271.372 113.335 271.223 113.401C271.075 113.466 270.941 113.561 270.832 113.681C270.722 113.8 270.638 113.941 270.585 114.094C270.533 114.248 270.513 114.411 270.526 114.572C270.513 114.734 270.533 114.897 270.585 115.05C270.638 115.204 270.722 115.345 270.832 115.464C270.941 115.584 271.075 115.679 271.223 115.744C271.372 115.809 271.532 115.843 271.695 115.843C271.857 115.843 272.017 115.809 272.166 115.744C272.315 115.679 272.448 115.584 272.558 115.464C272.668 115.345 272.751 115.204 272.804 115.05C272.857 114.897 272.877 114.734 272.863 114.572Z" fill="#263238"/>
<path d="M277.611 112.834V116.311H277.021V115.786C276.884 115.969 276.706 116.116 276.5 116.214C276.294 116.313 276.068 116.36 275.84 116.352C275.636 116.373 275.43 116.348 275.238 116.279C275.045 116.21 274.87 116.098 274.726 115.953C274.582 115.807 274.473 115.631 274.406 115.438C274.339 115.244 274.316 115.038 274.339 114.835V112.834H274.971V114.769C274.971 115.45 275.315 115.786 275.914 115.786C276.064 115.796 276.214 115.772 276.354 115.717C276.494 115.662 276.62 115.576 276.722 115.466C276.825 115.356 276.902 115.225 276.948 115.082C276.994 114.939 277.008 114.787 276.988 114.638V112.834H277.611Z" fill="#263238"/>
<path d="M280.686 112.801V113.416H280.538C280.385 113.406 280.232 113.43 280.09 113.487C279.947 113.544 279.819 113.631 279.715 113.744C279.61 113.856 279.532 113.99 279.486 114.136C279.44 114.282 279.427 114.437 279.448 114.589V116.319H278.8V112.834H279.407V113.424C279.538 113.209 279.729 113.036 279.955 112.926C280.182 112.815 280.436 112.772 280.686 112.801Z" fill="#263238"/>
<path d="M282.99 114.015C282.969 113.524 283.095 113.039 283.352 112.62C283.609 112.202 283.985 111.87 284.433 111.668C284.88 111.465 285.377 111.401 285.861 111.483C286.345 111.566 286.794 111.791 287.148 112.131C287.503 112.47 287.748 112.908 287.852 113.388C287.956 113.868 287.914 114.368 287.731 114.823C287.549 115.279 287.234 115.67 286.827 115.945C286.421 116.22 285.941 116.368 285.45 116.368C285.131 116.386 284.812 116.338 284.513 116.228C284.213 116.118 283.94 115.947 283.709 115.726C283.478 115.505 283.295 115.239 283.172 114.945C283.048 114.651 282.986 114.334 282.99 114.015ZM287.213 114.015C287.218 113.66 287.117 113.312 286.923 113.014C286.73 112.717 286.452 112.484 286.125 112.345C285.798 112.206 285.438 112.168 285.089 112.235C284.741 112.301 284.42 112.471 284.168 112.72C283.916 112.97 283.743 113.289 283.673 113.637C283.603 113.985 283.638 114.346 283.774 114.674C283.91 115.002 284.14 115.282 284.436 115.479C284.732 115.675 285.079 115.779 285.434 115.778C285.668 115.786 285.902 115.746 286.12 115.66C286.339 115.574 286.537 115.445 286.704 115.28C286.87 115.115 287.001 114.918 287.089 114.7C287.177 114.482 287.219 114.249 287.213 114.015Z" fill="#263238"/>
<path d="M289.722 112.26H288.148V111.694H291.92V112.26H290.346V116.278H289.698L289.722 112.26Z" fill="#263238"/>
<path d="M296.364 113.326C296.364 114.318 295.643 114.925 294.446 114.925H293.314V116.311H292.658V111.727H294.446C295.643 111.727 296.364 112.326 296.364 113.326ZM295.708 113.326C295.708 112.67 295.266 112.293 294.429 112.293H293.314V114.351H294.429C295.266 114.351 295.708 113.982 295.708 113.326Z" fill="#263238"/>
<path d="M298.783 114.015C298.805 113.54 298.964 113.082 299.241 112.696C299.518 112.31 299.9 112.012 300.343 111.839C300.785 111.665 301.268 111.624 301.733 111.719C302.199 111.814 302.627 112.042 302.965 112.375L302.539 112.793C302.375 112.615 302.174 112.473 301.951 112.378C301.727 112.284 301.486 112.238 301.243 112.244C300.776 112.244 300.327 112.429 299.997 112.76C299.666 113.091 299.48 113.539 299.48 114.007C299.48 114.474 299.666 114.923 299.997 115.253C300.327 115.584 300.776 115.77 301.243 115.77C301.486 115.775 301.727 115.729 301.951 115.635C302.174 115.54 302.375 115.399 302.539 115.22L302.965 115.638C302.627 115.971 302.199 116.199 301.733 116.294C301.268 116.39 300.785 116.348 300.343 116.174C299.9 116.001 299.518 115.703 299.241 115.317C298.964 114.931 298.805 114.473 298.783 113.998V114.015Z" fill="#263238"/>
<path d="M303.343 114.572C303.336 114.213 303.437 113.859 303.632 113.557C303.827 113.255 304.108 113.017 304.438 112.875C304.769 112.733 305.134 112.692 305.488 112.758C305.842 112.824 306.168 112.994 306.424 113.247C306.681 113.499 306.857 113.821 306.929 114.174C307.002 114.526 306.968 114.892 306.832 115.225C306.696 115.558 306.464 115.843 306.165 116.044C305.866 116.245 305.515 116.352 305.155 116.352C304.917 116.363 304.679 116.325 304.456 116.24C304.233 116.155 304.03 116.025 303.86 115.858C303.69 115.691 303.556 115.491 303.467 115.269C303.378 115.048 303.336 114.811 303.343 114.572ZM306.319 114.572C306.333 114.411 306.313 114.248 306.26 114.094C306.208 113.941 306.124 113.8 306.014 113.681C305.904 113.561 305.771 113.466 305.622 113.401C305.474 113.335 305.313 113.302 305.151 113.302C304.989 113.302 304.828 113.335 304.679 113.401C304.531 113.466 304.398 113.561 304.288 113.681C304.178 113.8 304.094 113.941 304.041 114.094C303.989 114.248 303.969 114.411 303.982 114.572C303.969 114.734 303.989 114.897 304.041 115.05C304.094 115.204 304.178 115.345 304.288 115.464C304.398 115.584 304.531 115.679 304.679 115.744C304.828 115.809 304.989 115.843 305.151 115.843C305.313 115.843 305.474 115.809 305.622 115.744C305.771 115.679 305.904 115.584 306.014 115.464C306.124 115.345 306.208 115.204 306.26 115.05C306.313 114.897 306.333 114.734 306.319 114.572Z" fill="#263238"/>
<path d="M311.108 111.44V116.303H310.509V115.753C310.366 115.944 310.179 116.098 309.963 116.201C309.747 116.304 309.51 116.353 309.271 116.344C308.821 116.313 308.4 116.113 308.092 115.783C307.784 115.454 307.613 115.019 307.613 114.568C307.613 114.117 307.784 113.683 308.092 113.354C308.4 113.024 308.821 112.824 309.271 112.793C309.503 112.786 309.733 112.833 309.943 112.929C310.154 113.026 310.339 113.17 310.485 113.351V111.44H311.108ZM310.485 114.564C310.474 114.335 310.395 114.114 310.259 113.928C310.123 113.743 309.936 113.602 309.721 113.522C309.505 113.442 309.271 113.427 309.047 113.48C308.824 113.532 308.62 113.649 308.462 113.815C308.304 113.982 308.199 114.192 308.159 114.418C308.119 114.644 308.146 114.877 308.238 115.088C308.329 115.299 308.481 115.478 308.673 115.604C308.866 115.729 309.091 115.796 309.32 115.794C309.479 115.798 309.637 115.769 309.784 115.708C309.931 115.647 310.063 115.556 310.173 115.441C310.283 115.326 310.367 115.189 310.421 115.04C310.474 114.89 310.496 114.731 310.485 114.572V114.564Z" fill="#263238"/>
<path d="M315.429 114.786H312.617C312.656 115.084 312.808 115.355 313.041 115.544C313.275 115.734 313.572 115.826 313.871 115.802C314.058 115.809 314.245 115.775 314.417 115.703C314.59 115.631 314.745 115.522 314.872 115.384L315.224 115.786C314.968 116.046 314.641 116.227 314.284 116.305C313.926 116.384 313.554 116.358 313.211 116.229C312.869 116.101 312.571 115.876 312.353 115.582C312.136 115.288 312.008 114.937 311.985 114.572C311.976 114.339 312.015 114.107 312.099 113.89C312.184 113.672 312.312 113.475 312.475 113.309C312.639 113.143 312.835 113.012 313.051 112.925C313.267 112.837 313.499 112.795 313.732 112.801C313.967 112.789 314.202 112.829 314.421 112.916C314.64 113.003 314.837 113.137 315 113.307C315.162 113.477 315.286 113.681 315.363 113.903C315.44 114.126 315.468 114.363 315.446 114.597C315.444 114.66 315.439 114.723 315.429 114.786ZM312.617 114.335H314.88C314.856 114.056 314.729 113.797 314.523 113.608C314.317 113.42 314.048 113.315 313.769 113.315C313.49 113.315 313.221 113.42 313.015 113.608C312.809 113.797 312.682 114.056 312.658 114.335H312.617Z" fill="#263238"/>
</g>
<g opacity="0.5">
<path d="M281.26 123.494C281.26 126.077 279.809 127.455 277.685 127.455C277.031 127.478 276.382 127.325 275.807 127.012L276.217 126.192C276.661 126.444 277.167 126.566 277.677 126.544C279.21 126.544 280.186 125.585 280.186 123.691V123.428C279.932 123.761 279.601 124.026 279.22 124.199C278.839 124.372 278.422 124.448 278.005 124.421C277.682 124.456 277.355 124.424 277.045 124.325C276.735 124.227 276.449 124.065 276.206 123.849C275.963 123.634 275.767 123.37 275.632 123.074C275.497 122.778 275.425 122.458 275.422 122.133C275.429 121.797 275.506 121.467 275.646 121.162C275.786 120.857 275.987 120.584 276.237 120.36C276.487 120.136 276.779 119.965 277.097 119.858C277.416 119.751 277.752 119.71 278.087 119.738C280.112 119.722 281.26 121.083 281.26 123.494ZM279.923 122.1C279.923 121.321 279.3 120.64 278.119 120.64C277.913 120.619 277.705 120.64 277.507 120.704C277.31 120.768 277.128 120.872 276.974 121.01C276.819 121.149 276.695 121.318 276.61 121.507C276.525 121.696 276.481 121.901 276.479 122.108C276.479 122.994 277.135 123.568 278.193 123.568C278.404 123.589 278.617 123.568 278.819 123.505C279.022 123.442 279.209 123.339 279.371 123.202C279.532 123.065 279.664 122.897 279.759 122.707C279.854 122.518 279.91 122.311 279.923 122.1Z" fill="#263238"/>
<path d="M282.293 123.592C282.293 121.132 283.613 119.722 285.385 119.722C287.156 119.722 288.46 121.132 288.46 123.592C288.46 126.052 287.139 127.455 285.385 127.455C283.63 127.455 282.293 126.052 282.293 123.592ZM287.377 123.592C287.377 121.657 286.557 120.69 285.385 120.69C284.212 120.69 283.376 121.657 283.376 123.592C283.376 125.528 284.196 126.495 285.385 126.495C286.574 126.495 287.377 125.528 287.377 123.592Z" fill="#263238"/>
<path d="M294.782 126.43V127.373H289.345V126.635L292.428 123.666C293.248 122.887 293.371 122.412 293.371 121.936C293.371 121.165 292.822 120.69 291.731 120.69C291.369 120.668 291.006 120.731 290.672 120.873C290.337 121.016 290.041 121.233 289.804 121.51L289.066 120.87C289.413 120.486 289.841 120.184 290.319 119.985C290.797 119.787 291.313 119.697 291.83 119.722C293.404 119.722 294.421 120.542 294.421 121.829C294.409 122.294 294.291 122.749 294.076 123.161C293.862 123.573 293.556 123.931 293.183 124.207L290.87 126.43H294.782Z" fill="#263238"/>
<path d="M298.013 119.812V127.373H296.938V120.755H295.2V119.812H298.013Z" fill="#263238"/>
<path d="M299.661 123.592C299.661 121.132 300.981 119.722 302.752 119.722C304.523 119.722 305.827 121.132 305.827 123.592C305.827 126.052 304.515 127.455 302.752 127.455C300.989 127.455 299.661 126.052 299.661 123.592ZM304.753 123.592C304.753 121.657 303.933 120.69 302.752 120.69C301.571 120.69 300.743 121.657 300.743 123.592C300.743 125.528 301.563 126.495 302.752 126.495C303.941 126.495 304.753 125.528 304.753 123.592Z" fill="#263238"/>
</g>
<path d="M283.991 170.554C288.886 173.941 294.361 176.401 300.145 177.811H300.202C299.769 177.798 299.343 177.919 298.98 178.155C298.623 178.378 298.338 178.7 298.16 179.082C298.1 179.199 298.067 179.328 298.062 179.459C298.193 177.737 297.447 175.802 296.922 173.94C295.979 170.997 294.872 167.979 293.765 165.019L296.93 163.321C299.546 167.331 308.279 180.025 302.318 183.698C301.296 184.294 300.088 184.487 298.931 184.24C292.435 183.277 286.241 180.861 280.809 177.171C280.432 176.909 280.104 176.679 279.661 176.351L284.007 170.537L283.991 170.554Z" fill="#DC897C"/>
<path d="M283.072 169.66C285.943 170.006 288.669 171.113 290.969 172.866L287.689 183.018C287.689 183.018 271.748 168.323 283.072 169.66Z" fill="#00529B"/>
<path opacity="0.6" d="M283.039 178.196C284.499 179.867 286.042 181.463 287.664 182.977L289.017 178.803L290.969 172.825C288.672 171.073 285.948 169.967 283.08 169.619C276.11 168.84 279.44 174.055 283.039 178.196Z" fill="white"/>
<path opacity="0.2" d="M283.039 178.196C284.499 179.867 286.042 181.463 287.664 182.977L289.017 178.803C287.316 177.477 285.221 176.756 283.064 176.753C283.015 177.232 283.007 177.715 283.039 178.196Z" fill="black"/>
<path d="M247.64 154.646C247.64 154.646 240.014 180 256.078 183.403C272.142 186.806 273.88 175.138 273.88 175.138C273.88 175.138 260.678 155.162 247.64 154.646Z" fill="#263238"/>
<path d="M243.876 163.043C243.847 163.051 243.815 163.051 243.786 163.043C243.763 163.031 243.742 163.015 243.725 162.996C243.709 162.976 243.696 162.954 243.688 162.929C243.681 162.905 243.678 162.879 243.681 162.853C243.683 162.827 243.691 162.803 243.704 162.78C243.944 162.343 244.282 161.967 244.692 161.682C245.102 161.398 245.572 161.212 246.066 161.14C246.117 161.142 246.166 161.162 246.203 161.196C246.241 161.231 246.265 161.278 246.271 161.329C246.273 161.355 246.27 161.381 246.262 161.405C246.254 161.43 246.242 161.453 246.225 161.473C246.208 161.493 246.188 161.509 246.164 161.521C246.141 161.533 246.116 161.54 246.09 161.542C245.663 161.612 245.257 161.778 244.903 162.028C244.549 162.278 244.257 162.605 244.048 162.985C244.027 163.009 244 163.027 243.97 163.037C243.94 163.047 243.907 163.049 243.876 163.043Z" fill="#263238"/>
<path d="M246.172 166.191C246.069 167.18 245.846 168.152 245.508 169.086C245.762 169.238 246.052 169.318 246.348 169.318C246.644 169.318 246.935 169.238 247.189 169.086L246.172 166.191Z" fill="#DE5753"/>
<path d="M244.622 165.084C244.795 165.535 245.18 165.806 245.442 165.691C245.705 165.576 245.852 165.125 245.68 164.674C245.508 164.223 245.123 163.953 244.86 164.068C244.598 164.182 244.458 164.633 244.622 165.084Z" fill="#263238"/>
<path d="M244.991 164.043H243.868C243.868 164.043 244.672 164.666 244.991 164.043Z" fill="#263238"/>
<path d="M260.949 169.34C260.92 169.414 260.882 169.483 260.834 169.545C260.76 169.685 260.678 169.816 260.596 169.955C260.115 170.819 259.475 171.584 258.71 172.21C256.25 174.17 254.11 174.76 252.248 174.195L251.978 174.104C249.214 172.981 247.058 169.676 245.344 165.306C244.583 163.595 244.104 161.773 243.925 159.91C243.925 159.91 243.925 159.845 243.925 159.828C243.925 159.812 243.925 159.681 243.925 159.615C243.861 158.547 244.065 157.48 244.517 156.511C244.97 155.541 245.657 154.7 246.517 154.064C247.252 153.487 248.049 152.994 248.895 152.596C257.086 148.602 265.057 161.608 260.949 169.34Z" fill="#E4897B"/>
<path opacity="0.2" d="M260.596 169.955C260.115 170.819 259.476 171.584 258.71 172.21C256.25 174.17 254.11 174.76 252.248 174.195C254.058 173.756 255.688 172.768 256.914 171.366C257.387 170.876 257.962 170.495 258.599 170.252C259.235 170.008 259.917 169.907 260.596 169.955Z" fill="black"/>
<path d="M243.884 159.861C243.884 159.861 246.172 165.88 252.855 165.773C252.855 165.773 258.07 170.693 261.588 169.127C266.385 167.003 267.369 158.278 262.482 152.186C256.135 144.281 242.294 149.98 243.884 159.861Z" fill="#263238"/>
<path d="M249.28 165.429C248.854 164.519 248.862 162.657 250.362 162.198C251.863 161.739 254.462 164.929 251.232 167.421C250.772 167.782 250.166 167.315 249.28 165.429Z" fill="#E4897B"/>
<path d="M251.076 148.906C251.076 148.906 244.877 150.128 242.876 153.826C240.531 158.123 240.416 161.452 246.648 163.666C246.648 163.666 254.528 156.286 257.923 155.466C259.901 154.975 261.917 154.651 263.95 154.498C261.687 147.946 253.577 146.192 251.076 148.906Z" fill="#263238"/>
<path d="M257.086 172.366C257.086 172.366 261.35 175.318 262.457 180.189L275.75 172.432C275.75 172.432 265.344 170.062 263.556 166.036C263.556 166.036 256.603 166.897 257.086 172.366Z" fill="#E4897B"/>
<path d="M270.288 204.305C270.288 204.305 253.068 187.388 251.215 182.075C251.215 182.075 258.456 170.8 272.929 170.324C287.402 169.849 297.25 197.384 297.25 197.384L270.288 204.305Z" fill="#00529B"/>
<path opacity="0.6" d="M297.25 197.392L270.297 204.313C270.297 204.313 266.541 200.615 262.343 196.113C261.047 194.711 259.694 193.235 258.39 191.775C254.971 187.897 251.953 184.108 251.223 182.05C251.223 182.05 258.456 170.775 272.929 170.3C287.402 169.824 297.25 197.392 297.25 197.392Z" fill="white"/>
<path d="M254.2 162.887C254.2 162.887 256.717 171.251 265.557 174.022C274.397 176.794 272.174 185.822 280.743 184.756C285.303 184.19 289.206 174.916 275.225 166.716C267.074 161.952 270.239 146.29 252.937 147.758C252.921 147.766 256.512 158.5 254.2 162.887Z" fill="#263238"/>
<path d="M262.785 331.799L258.685 330.864C259.3 310.364 262.261 285.575 264.876 266.953C265.286 264.034 265.696 261.279 266.074 258.704C266.262 257.482 266.434 256.309 266.607 255.178C267.427 249.594 268.181 245.182 268.632 242.451C268.968 240.459 269.157 239.368 269.157 239.368L283.917 242.968L282.859 246.691L279.374 258.991L278.98 260.393L276.668 268.503L272.748 282.303C272.994 303.14 262.785 331.799 262.785 331.799Z" fill="#E4897B"/>
<path d="M297.881 328.371L293.683 328.158C290.485 306.116 289.14 278.548 288.558 259.384C288.476 256.416 288.402 253.644 288.345 251.119C288.345 250.996 288.345 250.873 288.345 250.75C288.238 245.756 288.189 241.787 288.164 239.27C288.164 237.302 288.164 236.228 288.164 236.228L303.31 237.22L302.662 243.534L301.711 252.8L301.522 254.62L300.866 260.934L299.095 277.9C302.965 298.4 297.881 328.371 297.881 328.371Z" fill="#E4897B"/>
<path d="M299.456 327.551C299.456 327.026 292.978 327.436 292.978 327.436C292.978 327.436 289.001 331.479 285.139 332.356C281.276 333.234 283.441 335.587 287.754 335.587H298.414C301.498 335.62 299.579 333.004 299.456 327.551Z" fill="#263238"/>
<path d="M289.009 328.937C288.915 328.852 288.85 328.74 288.822 328.617C288.795 328.494 288.805 328.365 288.853 328.248C288.879 328.156 288.922 328.071 288.981 327.996C289.041 327.921 289.114 327.859 289.198 327.813C289.657 327.626 290.159 327.569 290.649 327.649C290.124 327.371 289.665 327.034 289.64 326.69C289.64 326.469 289.772 326.288 290.067 326.149C290.196 326.09 290.335 326.06 290.477 326.06C290.618 326.06 290.758 326.09 290.887 326.149C291.764 326.518 292.305 328.027 292.33 328.084C292.347 328.126 292.347 328.173 292.33 328.215V328.256C292.314 328.274 292.295 328.288 292.273 328.297C291.437 328.725 290.532 329.003 289.599 329.117C289.387 329.131 289.177 329.067 289.009 328.937ZM289.37 328.117C289.325 328.139 289.286 328.171 289.253 328.209C289.221 328.247 289.196 328.291 289.181 328.338C289.116 328.592 289.181 328.658 289.181 328.683C289.493 328.937 290.674 328.576 291.641 328.174C290.905 327.942 290.118 327.919 289.37 328.109V328.117ZM290.19 326.477C290.1 326.477 289.952 326.6 289.96 326.69C289.96 326.977 290.903 327.51 291.854 327.846C291.643 327.278 291.255 326.793 290.747 326.46C290.665 326.422 290.576 326.402 290.485 326.403C290.392 326.403 290.3 326.422 290.214 326.46L290.19 326.477Z" fill="#263238"/>
<path d="M264.86 327.551C264.86 327.026 258.39 327.436 258.39 327.436C258.39 327.436 254.413 331.479 250.551 332.356C246.689 333.234 248.845 335.587 253.159 335.587H263.819C266.91 335.62 264.999 333.004 264.86 327.551Z" fill="#263238"/>
<path d="M254.421 328.937C254.33 328.851 254.266 328.739 254.238 328.616C254.21 328.494 254.22 328.365 254.265 328.248C254.291 328.156 254.335 328.071 254.394 327.996C254.453 327.921 254.526 327.859 254.61 327.813C255.069 327.626 255.572 327.57 256.061 327.649C255.536 327.371 255.077 327.034 255.061 326.69C255.061 326.471 255.2 326.291 255.479 326.149C255.608 326.09 255.748 326.06 255.889 326.06C256.031 326.06 256.17 326.09 256.299 326.149C257.177 326.518 257.718 328.027 257.742 328.084C257.752 328.104 257.758 328.127 257.758 328.15C257.758 328.172 257.752 328.195 257.742 328.215C257.742 328.215 257.742 328.215 257.742 328.256L257.685 328.297C256.845 328.724 255.938 329.001 255.004 329.117C254.794 329.128 254.588 329.064 254.421 328.937ZM254.782 328.117C254.739 328.139 254.7 328.171 254.669 328.209C254.638 328.247 254.615 328.291 254.602 328.338C254.536 328.592 254.602 328.658 254.643 328.683C254.946 328.937 256.127 328.576 257.103 328.174C256.351 327.932 255.546 327.91 254.782 328.109V328.117ZM255.602 326.477C255.512 326.477 255.364 326.6 255.372 326.69C255.372 326.977 256.316 327.51 257.275 327.846C257.06 327.278 256.669 326.792 256.16 326.46C256.078 326.421 255.988 326.401 255.897 326.403C255.804 326.403 255.712 326.422 255.627 326.46L255.602 326.477Z" fill="#263238"/>
<path d="M266.795 245.535L270.288 220.935V204.289C279.497 197.368 297.25 197.368 297.25 197.368C297.25 197.368 310.887 216.285 304.261 247.388L287.139 249.848L286.049 244.042L283.9 249.848L266.795 245.535Z" fill="#263238"/>
<path opacity="0.2" d="M266.795 245.535L270.288 220.935V204.289C279.497 197.368 297.25 197.368 297.25 197.368C297.25 197.368 310.887 216.285 304.261 247.388L287.139 249.848L286.049 244.042L283.9 249.848L266.795 245.535Z" fill="white"/>
<path opacity="0.2" d="M286.049 244.132L289.329 233.891C289.329 233.891 292.789 232.841 297.234 225.969C297.25 225.969 296.479 237.663 286.049 244.132Z" fill="black"/>
<path opacity="0.2" d="M278.751 209.02L286.434 208.29C287.66 211.163 288.085 214.314 287.664 217.409L282.744 220.369L279.177 217.835C279.177 217.835 279.062 211.332 278.751 209.02Z" fill="black"/>
<path opacity="0.2" d="M297.25 207.142C298.281 209.676 299.042 212.312 299.521 215.006L302.244 216.162L303.712 214.334C303.712 214.334 302.719 208.979 301.038 206.355L297.25 207.142Z" fill="black"/>
<path d="M266.475 244.132L284.647 249.462L283.507 251.906L266.246 246.592L266.475 244.132Z" fill="#263238"/>
<path d="M286.434 249.11L286.738 251.357L304.556 249.11L304.827 246.281L286.434 249.11Z" fill="#263238"/>
<path d="M290.173 200.82C293.088 200.328 296.033 200.04 298.988 199.959L297.89 198.147C295.016 198.071 292.141 198.241 289.296 198.655L290.173 200.82Z" fill="#263238"/>
<path d="M273.831 203.05C271.477 204.067 270.124 204.83 270.124 204.83V207.068C271.447 206.401 272.773 205.792 274.101 205.24L273.831 203.05Z" fill="#263238"/>
<path d="M274.962 204.92C279.52 203.133 284.249 201.817 289.075 200.992L288.255 198.811C283.577 199.591 279.004 200.906 274.626 202.731L274.962 204.92Z" fill="#263238"/>
<path d="M225.697 211.324L221.039 209.455L220.219 213.85C220.219 213.85 224.418 216.392 226.172 213.366L225.697 211.324Z" fill="#E4897B"/>
<path d="M218.727 209.725L217.234 213.12L220.252 213.85L221.039 209.455L218.727 209.725Z" fill="#E4897B"/>
<path d="M297.176 164.084L296.627 159.098L292.379 160.476C292.379 160.476 292.117 165.396 295.618 165.494L297.176 164.084Z" fill="#E4897B"/>
<path d="M295.29 157.188L291.592 157.483L292.379 160.476L296.627 159.098L295.29 157.188Z" fill="#E4897B"/>
<path opacity="0.2" d="M262.343 196.138C261.047 194.736 259.694 193.26 258.39 191.8C257.89 188.75 257.57 186.06 257.57 186.06C259.132 187.219 260.385 188.744 261.217 190.502C262.049 192.26 262.436 194.195 262.343 196.138Z" fill="black"/>
<path d="M258.046 184.65C256.168 192.222 253.332 199.524 249.608 206.38C245.918 213.391 231.888 214.235 224.836 214.416L224.508 210.84C228.755 209.84 241.957 207.208 243.761 203.378C246.707 196.744 249.13 189.89 251.01 182.878L258.046 184.633V184.65Z" fill="#DC897C"/>
<path d="M254.028 178.467C250.018 181.091 247.87 187.913 247.189 191.251L255.52 197.384L259.727 193.284C261.432 183.871 255.553 177.475 254.028 178.467Z" fill="#00529B"/>
<path opacity="0.6" d="M254.028 178.467C250.018 181.091 247.87 187.913 247.189 191.251L255.52 197.384L259.727 193.284C261.432 183.871 255.553 177.475 254.028 178.467Z" fill="white"/>
<path d="M294.7 165.683L288.747 166.323C288.663 166.325 288.579 166.31 288.501 166.278C288.424 166.247 288.353 166.2 288.295 166.14C288.236 166.079 288.191 166.008 288.161 165.929C288.132 165.851 288.119 165.767 288.123 165.683L287.763 153.08C287.751 152.901 287.805 152.725 287.913 152.583C288.022 152.442 288.178 152.344 288.353 152.309L294.298 151.677C294.382 151.674 294.466 151.688 294.545 151.719C294.623 151.75 294.694 151.797 294.753 151.858C294.812 151.918 294.857 151.99 294.886 152.069C294.915 152.149 294.927 152.233 294.921 152.317L295.282 164.92C295.293 165.096 295.241 165.271 295.134 165.411C295.027 165.551 294.873 165.648 294.7 165.683Z" fill="#263238"/>
<path opacity="0.6" d="M294.7 165.683L288.747 166.323C288.663 166.325 288.579 166.31 288.501 166.278C288.424 166.247 288.353 166.2 288.295 166.14C288.236 166.079 288.191 166.008 288.161 165.929C288.132 165.851 288.119 165.767 288.123 165.683L287.763 153.08C287.751 152.901 287.805 152.725 287.913 152.583C288.022 152.442 288.178 152.344 288.353 152.309L294.298 151.677C294.382 151.674 294.466 151.688 294.545 151.719C294.623 151.75 294.694 151.797 294.753 151.858C294.812 151.918 294.857 151.99 294.886 152.069C294.915 152.149 294.927 152.233 294.921 152.317L295.282 164.92C295.293 165.096 295.241 165.271 295.134 165.411C295.027 165.551 294.873 165.648 294.7 165.683Z" fill="white"/>
<path d="M294.175 165.74L288.23 166.372C288.146 166.377 288.062 166.363 287.983 166.333C287.904 166.303 287.833 166.257 287.773 166.197C287.713 166.138 287.667 166.066 287.637 165.988C287.607 165.909 287.594 165.825 287.599 165.74L287.246 153.129C287.231 152.952 287.282 152.776 287.39 152.635C287.497 152.494 287.654 152.398 287.828 152.366L293.773 151.735C293.857 151.731 293.94 151.745 294.018 151.776C294.096 151.806 294.166 151.853 294.225 151.912C294.283 151.972 294.329 152.043 294.359 152.121C294.388 152.199 294.401 152.283 294.396 152.366L294.757 164.978C294.772 165.155 294.721 165.331 294.613 165.472C294.506 165.613 294.35 165.708 294.175 165.74Z" fill="#263238"/>
<path opacity="0.7" d="M294.175 165.74L288.23 166.372C288.146 166.377 288.062 166.363 287.983 166.333C287.904 166.303 287.833 166.257 287.773 166.197C287.713 166.138 287.667 166.066 287.637 165.988C287.607 165.909 287.594 165.825 287.599 165.74L287.246 153.129C287.231 152.952 287.282 152.776 287.39 152.635C287.497 152.494 287.654 152.398 287.828 152.366L293.773 151.735C293.857 151.731 293.94 151.745 294.018 151.776C294.096 151.806 294.166 151.853 294.225 151.912C294.283 151.972 294.329 152.043 294.359 152.121C294.388 152.199 294.401 152.283 294.396 152.366L294.757 164.978C294.772 165.155 294.721 165.331 294.613 165.472C294.506 165.613 294.35 165.708 294.175 165.74Z" fill="white"/>
<path d="M293.781 151.981L292.223 152.145L292.027 152.629L289.616 152.883L289.394 152.448L287.836 152.612C287.724 152.636 287.623 152.699 287.554 152.791C287.484 152.883 287.451 152.997 287.459 153.112L287.812 165.716C287.808 165.771 287.816 165.825 287.836 165.877C287.855 165.928 287.885 165.975 287.924 166.014C287.963 166.053 288.009 166.083 288.061 166.102C288.112 166.121 288.167 166.129 288.222 166.126L294.167 165.494C294.279 165.473 294.379 165.411 294.449 165.32C294.518 165.229 294.552 165.116 294.544 165.002L294.191 152.391C294.194 152.336 294.185 152.282 294.165 152.231C294.145 152.18 294.115 152.134 294.076 152.096C294.038 152.057 293.992 152.027 293.941 152.007C293.89 151.987 293.836 151.978 293.781 151.981Z" fill="#00529B"/>
<path opacity="0.8" d="M292.986 156.54L288.615 157.007C288.562 157.01 288.509 157.001 288.459 156.982C288.409 156.962 288.364 156.933 288.326 156.895C288.288 156.857 288.259 156.812 288.239 156.762C288.22 156.712 288.211 156.659 288.214 156.606V155.392C288.203 155.279 288.235 155.166 288.304 155.075C288.372 154.984 288.471 154.922 288.583 154.9L292.961 154.433C293.015 154.431 293.068 154.441 293.117 154.462C293.167 154.482 293.211 154.512 293.248 154.551C293.285 154.59 293.314 154.635 293.332 154.686C293.351 154.736 293.358 154.789 293.355 154.843L293.396 156.056C293.403 156.174 293.364 156.29 293.288 156.38C293.212 156.47 293.103 156.528 292.986 156.54Z" fill="white"/>
</svg>
