<svg width="412" height="412" viewBox="0 0 412 412" fill="none" xmlns="http://www.w3.org/2000/svg">
<path d="M196.442 281.421H37.3354C36.0883 281.419 34.8928 280.922 34.0109 280.04C33.129 279.158 32.6326 277.963 32.6304 276.716V53.0574C32.6434 51.8173 33.1446 50.6324 34.0253 49.7594C34.906 48.8864 36.0954 48.3956 37.3354 48.3935H196.442C197.688 48.3957 198.883 48.8924 199.763 49.7745C200.644 50.6566 201.138 51.8521 201.138 53.0986V276.716C201.138 277.962 200.644 279.158 199.763 280.04C198.883 280.922 197.688 281.419 196.442 281.421ZM37.3354 48.5583C36.1429 48.5605 34.9998 49.0352 34.1565 49.8785C33.3133 50.7217 32.8386 51.8648 32.8364 53.0574V276.716C32.8386 277.908 33.3133 279.051 34.1565 279.895C34.9998 280.738 36.1429 281.213 37.3354 281.215H196.442C197.633 281.213 198.776 280.738 199.618 279.894C200.46 279.051 200.932 277.907 200.932 276.716V53.0574C200.932 51.8656 200.46 50.7225 199.618 49.879C198.776 49.0355 197.633 48.5605 196.442 48.5583H37.3354Z" fill="#E6E6E6"/>
<path d="M374.673 281.421H215.558C214.312 281.419 213.117 280.922 212.237 280.04C211.356 279.158 210.862 277.962 210.862 276.716V53.0574C210.872 51.8181 211.372 50.6331 212.251 49.7599C213.131 48.8867 214.319 48.3956 215.558 48.3935H374.673C375.912 48.3956 377.101 48.8867 377.98 49.7599C378.859 50.6331 379.359 51.8181 379.37 53.0574V276.716C379.37 277.962 378.875 279.158 377.994 280.04C377.114 280.922 375.919 281.419 374.673 281.421ZM215.558 48.5583C214.367 48.5605 213.224 49.0355 212.382 49.879C211.54 50.7225 211.068 51.8656 211.068 53.0574V276.716C211.068 277.907 211.54 279.051 212.382 279.894C213.224 280.738 214.367 281.213 215.558 281.215H374.673C375.866 281.213 377.01 280.738 377.855 279.895C378.699 279.052 379.176 277.909 379.18 276.716V53.0574C379.176 51.8641 378.699 50.721 377.855 49.878C377.01 49.0349 375.866 48.5605 374.673 48.5583H215.558Z" fill="#E6E6E6"/>
<path d="M171.186 162.707L170.057 259.56C166.069 291.787 108.941 317.372 108.941 317.372C108.941 317.372 51.8049 291.811 47.792 259.56L46.6302 162.707L107.689 142.61L171.186 162.707Z" fill="#F5F5F5"/>
<path d="M163.218 168.838L162.237 255.803C158.76 283.909 108.933 306.223 108.933 306.223C108.933 306.223 59.1055 283.909 55.6365 255.803L54.59 168.838L107.845 151.311L163.218 168.838Z" fill="#E0E0E0"/>
<path d="M159.724 174.325L158.801 254.163C155.505 280.531 108.826 301.427 108.826 301.427C108.826 301.427 62.1131 280.506 58.8583 254.163L57.8777 174.325L107.804 157.895L159.724 174.325Z" stroke="white" stroke-width="3" stroke-linecap="round" stroke-linejoin="round"/>
<path d="M362.824 130.019H252.919V322.868H362.824V130.019Z" fill="#F5F5F5"/>
<path d="M354.856 137.6H261.043V322.868H354.856V137.6Z" fill="#E0E0E0"/>
<path d="M263.68 323.692C263.516 323.693 263.353 323.659 263.202 323.593C263.053 323.534 262.918 323.444 262.807 323.329C262.687 323.217 262.594 323.079 262.535 322.926C262.475 322.776 262.445 322.617 262.444 322.456C262.444 322.273 262.485 322.093 262.563 321.928C262.641 321.764 262.755 321.618 262.896 321.502C263.037 321.386 263.201 321.303 263.378 321.259C263.555 321.214 263.74 321.209 263.919 321.245L264.15 321.311L264.364 321.426C264.431 321.474 264.494 321.526 264.553 321.582C264.612 321.638 264.662 321.702 264.702 321.772C264.75 321.838 264.789 321.91 264.817 321.986C264.85 322.06 264.875 322.138 264.891 322.217C264.9 322.296 264.9 322.376 264.891 322.456C264.892 322.618 264.858 322.778 264.792 322.926C264.733 323.077 264.643 323.214 264.529 323.329C264.302 323.554 263.999 323.683 263.68 323.692Z" fill="white"/>
<path d="M262.428 292.1C262.429 291.937 262.462 291.776 262.526 291.625C262.589 291.475 262.682 291.339 262.798 291.225C262.915 291.111 263.053 291.021 263.204 290.961C263.355 290.9 263.517 290.87 263.68 290.872C264.008 290.872 264.322 291.002 264.554 291.234C264.786 291.466 264.916 291.78 264.916 292.108C264.916 292.436 264.786 292.75 264.554 292.982C264.322 293.214 264.008 293.344 263.68 293.344C263.516 293.346 263.352 293.316 263.2 293.254C263.048 293.192 262.909 293.101 262.792 292.985C262.676 292.869 262.583 292.731 262.521 292.579C262.458 292.427 262.426 292.264 262.428 292.1ZM262.428 261.752C262.428 261.424 262.558 261.11 262.79 260.878C263.021 260.646 263.336 260.516 263.664 260.516C263.991 260.516 264.306 260.646 264.537 260.878C264.769 261.11 264.9 261.424 264.9 261.752C264.9 262.08 264.769 262.394 264.537 262.626C264.306 262.858 263.991 262.988 263.664 262.988C263.336 262.988 263.021 262.858 262.79 262.626C262.558 262.394 262.428 262.08 262.428 261.752ZM262.428 231.396C262.428 231.068 262.558 230.753 262.79 230.522C263.021 230.29 263.336 230.16 263.664 230.16C263.991 230.16 264.306 230.29 264.537 230.522C264.769 230.753 264.9 231.068 264.9 231.396C264.9 231.723 264.769 232.038 264.537 232.27C264.306 232.501 263.991 232.632 263.664 232.632C263.501 232.632 263.34 232.6 263.191 232.538C263.041 232.475 262.904 232.384 262.79 232.27C262.675 232.155 262.584 232.019 262.522 231.869C262.459 231.719 262.428 231.558 262.428 231.396ZM262.428 201.04C262.428 200.712 262.558 200.397 262.79 200.166C263.021 199.934 263.336 199.804 263.664 199.804C263.991 199.804 264.306 199.934 264.537 200.166C264.769 200.397 264.9 200.712 264.9 201.04C264.9 201.367 264.769 201.682 264.537 201.914C264.306 202.145 263.991 202.276 263.664 202.276C263.339 202.276 263.027 202.148 262.795 201.919C262.564 201.691 262.432 201.381 262.428 201.056V201.04ZM262.428 170.692C262.428 170.364 262.558 170.049 262.79 169.818C263.021 169.586 263.336 169.456 263.664 169.456C263.991 169.456 264.306 169.586 264.537 169.818C264.769 170.049 264.9 170.364 264.9 170.692C264.9 171.019 264.769 171.334 264.537 171.566C264.306 171.797 263.991 171.928 263.664 171.928C263.501 171.928 263.34 171.896 263.191 171.834C263.041 171.771 262.904 171.68 262.79 171.566C262.675 171.451 262.584 171.315 262.522 171.165C262.459 171.015 262.428 170.854 262.428 170.692Z" fill="white"/>
<path d="M263.68 141.571C263.518 141.572 263.357 141.541 263.207 141.478C263.057 141.416 262.921 141.324 262.807 141.209C262.746 141.153 262.693 141.09 262.65 141.019C262.607 140.954 262.568 140.885 262.535 140.813C262.501 140.737 262.479 140.657 262.469 140.574C262.46 140.495 262.46 140.415 262.469 140.335C262.471 140.008 262.601 139.695 262.831 139.462C262.886 139.404 262.947 139.351 263.013 139.305C263.08 139.262 263.152 139.226 263.227 139.198C263.301 139.166 263.378 139.141 263.458 139.124C263.618 139.091 263.783 139.091 263.944 139.124C264.023 139.141 264.1 139.166 264.174 139.198C264.25 139.226 264.322 139.262 264.389 139.305C264.455 139.353 264.519 139.405 264.578 139.462C264.809 139.695 264.939 140.008 264.941 140.335C264.949 140.415 264.949 140.495 264.941 140.574C264.924 140.656 264.899 140.736 264.867 140.813C264.836 140.886 264.798 140.955 264.751 141.019C264.711 141.089 264.661 141.153 264.603 141.209C264.482 141.329 264.338 141.423 264.179 141.485C264.02 141.548 263.85 141.577 263.68 141.571Z" fill="white"/>
<path d="M321.261 140.335C321.261 140.008 321.391 139.693 321.623 139.461C321.855 139.23 322.169 139.099 322.497 139.099C322.825 139.099 323.139 139.23 323.371 139.461C323.603 139.693 323.733 140.008 323.733 140.335C323.733 140.663 323.603 140.978 323.371 141.209C323.139 141.441 322.825 141.571 322.497 141.571C322.169 141.571 321.855 141.441 321.623 141.209C321.391 140.978 321.261 140.663 321.261 140.335ZM291.844 140.335C291.844 140.008 291.975 139.693 292.206 139.461C292.438 139.23 292.752 139.099 293.08 139.099C293.408 139.099 293.722 139.23 293.954 139.461C294.186 139.693 294.316 140.008 294.316 140.335C294.316 140.663 294.186 140.978 293.954 141.209C293.722 141.441 293.408 141.571 293.08 141.571C292.752 141.571 292.438 141.441 292.206 141.209C291.975 140.978 291.844 140.663 291.844 140.335Z" fill="white"/>
<path d="M351.914 141.571C351.834 141.58 351.754 141.58 351.675 141.571L351.444 141.506L351.23 141.39C351.163 141.343 351.1 141.29 351.04 141.234C350.809 141.002 350.678 140.688 350.678 140.36C350.68 140.033 350.81 139.719 351.04 139.487C351.098 139.43 351.161 139.381 351.23 139.338C351.295 139.289 351.367 139.25 351.444 139.223C351.518 139.19 351.596 139.165 351.675 139.149C351.835 139.116 352.001 139.116 352.161 139.149L352.392 139.223C352.466 139.25 352.536 139.289 352.598 139.338C352.668 139.378 352.732 139.428 352.787 139.487C353.018 139.719 353.148 140.033 353.15 140.36C353.15 140.688 353.019 141.002 352.787 141.234C352.73 141.292 352.666 141.345 352.598 141.39C352.532 141.433 352.463 141.472 352.392 141.506L352.161 141.571C352.079 141.58 351.996 141.58 351.914 141.571Z" fill="white"/>
<path d="M350.678 292.1C350.678 291.772 350.808 291.458 351.04 291.226C351.272 290.994 351.586 290.864 351.914 290.864C352.242 290.864 352.556 290.994 352.788 291.226C353.02 291.458 353.15 291.772 353.15 292.1C353.15 292.428 353.02 292.742 352.788 292.974C352.556 293.206 352.242 293.336 351.914 293.336C351.586 293.336 351.272 293.206 351.04 292.974C350.808 292.742 350.678 292.428 350.678 292.1ZM350.678 261.752C350.678 261.424 350.808 261.11 351.04 260.878C351.272 260.646 351.586 260.516 351.914 260.516C352.242 260.516 352.556 260.646 352.788 260.878C353.02 261.11 353.15 261.424 353.15 261.752C353.15 262.08 353.02 262.394 352.788 262.626C352.556 262.858 352.242 262.988 351.914 262.988C351.586 262.988 351.272 262.858 351.04 262.626C350.808 262.394 350.678 262.08 350.678 261.752ZM350.678 231.396C350.678 231.068 350.808 230.753 351.04 230.522C351.272 230.29 351.586 230.16 351.914 230.16C352.242 230.16 352.556 230.29 352.788 230.522C353.02 230.753 353.15 231.068 353.15 231.396C353.15 231.723 353.02 232.038 352.788 232.27C352.556 232.501 352.242 232.632 351.914 232.632C351.752 232.632 351.591 232.6 351.441 232.538C351.291 232.475 351.155 232.384 351.04 232.27C350.925 232.155 350.834 232.019 350.772 231.869C350.71 231.719 350.678 231.558 350.678 231.396ZM350.678 201.04C350.678 200.712 350.808 200.397 351.04 200.166C351.272 199.934 351.586 199.804 351.914 199.804C352.242 199.804 352.556 199.934 352.788 200.166C353.02 200.397 353.15 200.712 353.15 201.04C353.15 201.367 353.02 201.682 352.788 201.914C352.556 202.145 352.242 202.276 351.914 202.276C351.589 202.276 351.277 202.148 351.046 201.919C350.814 201.691 350.682 201.381 350.678 201.056V201.04ZM350.678 170.692C350.678 170.364 350.808 170.049 351.04 169.818C351.272 169.586 351.586 169.456 351.914 169.456C352.242 169.456 352.556 169.586 352.788 169.818C353.02 170.049 353.15 170.364 353.15 170.692C353.15 171.019 353.02 171.334 352.788 171.566C352.556 171.797 352.242 171.928 351.914 171.928C351.752 171.928 351.591 171.896 351.441 171.834C351.291 171.771 351.155 171.68 351.04 171.566C350.925 171.451 350.834 171.315 350.772 171.165C350.71 171.015 350.678 170.854 350.678 170.692Z" fill="white"/>
<path d="M351.914 323.692C351.67 323.692 351.431 323.619 351.228 323.483C351.025 323.347 350.867 323.154 350.773 322.929C350.68 322.703 350.655 322.455 350.703 322.215C350.75 321.975 350.868 321.755 351.04 321.582C351.1 321.526 351.163 321.474 351.23 321.426L351.444 321.311L351.675 321.245C351.835 321.212 352.001 321.212 352.161 321.245L352.392 321.311C352.463 321.344 352.532 321.383 352.598 321.426C352.666 321.471 352.73 321.524 352.787 321.582C353.019 321.814 353.15 322.128 353.15 322.456C353.152 322.618 353.12 322.78 353.058 322.93C352.996 323.08 352.904 323.216 352.787 323.329C352.556 323.561 352.242 323.692 351.914 323.692Z" fill="white"/>
<path d="M78.28 323.181H44.323V323.387H78.28V323.181Z" fill="#E0E0E0"/>
<path d="M147.496 321.533H113.44V321.739H147.496V321.533Z" fill="#E0E0E0"/>
<path d="M191.811 321.533H183.571V321.739H191.811V321.533Z" fill="#E0E0E0"/>
<path d="M109.452 328.57H71.3419V328.776H109.452V328.57Z" fill="#E0E0E0"/>
<path d="M241.267 323.074H223.469V323.28H241.267V323.074Z" fill="#E0E0E0"/>
<path d="M271.615 323.074H248.601V323.28H271.615V323.074Z" fill="#E0E0E0"/>
<path d="M382.608 326.559H331.157V326.765H382.608V326.559Z" fill="#E0E0E0"/>
<path d="M192.33 72.2236H154.368L156.445 48.5666H194.398L192.33 72.2236Z" fill="#EBEBEB"/>
<path d="M193.096 45.353L192.058 57.7047L191.02 72.5532H154.516L156.593 45.353H193.096Z" fill="#FAFAFA"/>
<path d="M189.611 48.5666L191.679 72.2236H153.725L151.649 48.5666H154.879L156 46.7867H166.226L167.692 48.5666H189.611Z" fill="#E0E0E0"/>
<path d="M251.163 77.5054H210.771V117.898H251.163V77.5054Z" fill="#EBEBEB"/>
<path d="M252.193 77.5054H251.163V117.898H252.193V77.5054Z" fill="#E0E0E0"/>
<path d="M247.422 81.2464H214.495V114.173H247.422V81.2464Z" fill="#F5F5F5"/>
<path d="M214.809 81.2464H214.504V114.173H214.809V81.2464Z" fill="#E0E0E0"/>
<path d="M231.272 102.464C234.817 102.464 237.691 98.8047 237.691 94.2903C237.691 89.7759 234.817 86.1162 231.272 86.1162C227.727 86.1162 224.853 89.7759 224.853 94.2903C224.853 98.8047 227.727 102.464 231.272 102.464Z" fill="#E0E0E0"/>
<path d="M227.918 106.601H234.683V99.8359H227.918V106.601Z" fill="#E0E0E0"/>
<path d="M243.467 114.173H218.681V111.866C218.681 109.76 219.518 107.739 221.008 106.249C222.498 104.76 224.518 103.923 226.625 103.923H235.557C237.664 103.923 239.684 104.76 241.174 106.249C242.663 107.739 243.5 109.76 243.5 111.866V114.173H243.467Z" fill="#E0E0E0"/>
<path d="M218.063 100.429C218.063 101.772 220.535 102.901 220.535 102.901C220.535 102.901 223.007 101.805 223.007 100.429C223.007 99.7864 222.117 99.4239 221.532 99.6051C221.308 99.6833 221.102 99.8051 220.925 99.9635C220.748 100.122 220.605 100.314 220.502 100.528C220.187 100.103 219.771 99.7632 219.291 99.5392C219.15 99.49 219 99.4755 218.853 99.497C218.705 99.5186 218.565 99.5755 218.444 99.663C218.324 99.7504 218.226 99.8658 218.16 99.9992C218.093 100.133 218.06 100.28 218.063 100.429Z" fill="#E0E0E0"/>
<path d="M239.998 94.4222C239.998 96.1938 243.204 97.6275 243.204 97.6275C243.204 97.6275 246.409 96.1938 246.409 94.4222C246.409 93.5982 245.222 93.112 244.473 93.3262C243.907 93.5522 243.452 93.9896 243.204 94.5458C242.786 93.9906 242.24 93.544 241.613 93.2438C241.428 93.1781 241.229 93.1586 241.034 93.1871C240.839 93.2155 240.654 93.2911 240.495 93.4071C240.336 93.5232 240.208 93.6763 240.121 93.8532C240.034 94.03 239.992 94.2253 239.998 94.4222Z" fill="#E0E0E0"/>
<path d="M169.505 296.08C169.884 298.461 171.606 300.513 171.738 302.919C171.845 304.806 170.963 306.577 170.527 308.415C170.09 310.252 170.304 312.535 171.911 313.507C172.496 313.804 173.149 313.94 173.804 313.901C174.458 313.862 175.09 313.649 175.636 313.285C176.712 312.54 177.6 311.556 178.231 310.409C180.759 306.324 182.139 301.633 182.228 296.83C182.228 294.811 182.022 292.668 180.835 291.062C177.16 285.928 168.566 290.147 169.505 296.08Z" fill="#F5F5F5"/>
<path d="M166.448 289.776C166.802 290.163 167.264 290.436 167.775 290.559C168.083 290.659 168.412 290.679 168.731 290.617C169.05 290.555 169.347 290.413 169.596 290.205C169.785 289.961 169.92 289.68 169.991 289.38C170.062 289.08 170.068 288.768 170.008 288.466C169.957 287.707 169.698 286.977 169.258 286.356C169.037 286.051 168.744 285.804 168.404 285.639C168.065 285.473 167.69 285.394 167.313 285.409C166.937 285.44 166.582 285.599 166.309 285.86C166.036 286.121 165.861 286.468 165.814 286.843C165.722 287.862 165.943 288.886 166.448 289.776Z" fill="#F5F5F5"/>
<path d="M173.295 284.824C173.127 284.563 172.886 284.358 172.601 284.233C172.317 284.109 172.003 284.071 171.697 284.123C171.394 284.191 171.119 284.348 170.908 284.575C170.696 284.801 170.558 285.086 170.51 285.392C170.497 285.593 170.497 285.794 170.51 285.994C170.513 286.318 170.549 286.641 170.617 286.958C170.686 287.264 170.831 287.547 171.038 287.782C171.32 288.057 171.679 288.241 172.068 288.309C172.308 288.367 172.559 288.365 172.798 288.305C173.038 288.245 173.259 288.128 173.444 287.963C173.608 287.764 173.73 287.533 173.804 287.286C173.877 287.038 173.901 286.778 173.872 286.521C173.853 285.911 173.653 285.32 173.295 284.824Z" fill="#F5F5F5"/>
<path d="M177.111 284.618C176.976 284.369 176.756 284.177 176.491 284.077C176.226 283.978 175.934 283.976 175.669 284.074C175.409 284.182 175.181 284.352 175.002 284.569C174.824 284.786 174.702 285.043 174.647 285.318C174.647 285.5 174.597 285.681 174.589 285.862C174.584 286.162 174.617 286.461 174.688 286.752C174.747 287.039 174.897 287.299 175.116 287.494C175.35 287.689 175.637 287.81 175.94 287.84C176.138 287.864 176.338 287.845 176.528 287.783C176.717 287.722 176.89 287.621 177.036 287.485C177.357 287.121 177.533 286.652 177.531 286.167C177.567 285.618 177.419 285.073 177.111 284.618Z" fill="#F5F5F5"/>
<path d="M180.514 285.409C180.11 284.807 179.69 284.766 179.228 285.022C178.818 285.322 178.526 285.756 178.404 286.249C178.358 286.408 178.325 286.571 178.305 286.736C178.261 287.008 178.261 287.287 178.305 287.56C178.359 287.824 178.513 288.057 178.734 288.21C178.938 288.338 179.178 288.396 179.418 288.375C179.73 288.347 180.021 288.21 180.242 287.988C180.545 287.663 180.738 287.251 180.794 286.81C180.877 286.324 180.778 285.825 180.514 285.409Z" fill="#F5F5F5"/>
<path d="M181.181 288.746C181.136 288.941 181.136 289.144 181.181 289.339C181.198 289.439 181.239 289.534 181.301 289.614C181.362 289.695 181.443 289.759 181.535 289.801C181.704 289.839 181.88 289.827 182.041 289.765C182.202 289.704 182.342 289.596 182.442 289.455C182.686 289.205 182.864 288.9 182.961 288.565C183.009 288.398 183.023 288.222 183.002 288.05C182.98 287.877 182.925 287.71 182.837 287.56C182.104 286.365 181.28 288.153 181.181 288.746Z" fill="#F5F5F5"/>
<path d="M181.849 351.115C182.401 349.17 182.722 347.036 181.989 345.149C179.723 339.274 170.362 341.144 169.744 347.126L181.849 351.115Z" fill="#F5F5F5"/>
<path d="M168.442 340.254C168.687 340.72 169.066 341.102 169.53 341.35C169.802 341.526 170.114 341.63 170.437 341.651C170.76 341.673 171.083 341.612 171.376 341.474C171.616 341.285 171.814 341.046 171.956 340.775C172.098 340.504 172.181 340.206 172.2 339.9C172.345 339.156 172.282 338.386 172.018 337.675C171.882 337.321 171.66 337.005 171.372 336.756C171.085 336.508 170.741 336.334 170.37 336.25C170 336.184 169.618 336.247 169.288 336.428C168.958 336.61 168.7 336.898 168.557 337.247C168.216 338.215 168.176 339.263 168.442 340.254Z" fill="#F5F5F5"/>
<path d="M176.336 337.214C176.238 336.919 176.057 336.66 175.814 336.466C175.571 336.273 175.277 336.155 174.968 336.126C174.658 336.116 174.353 336.198 174.09 336.362C173.827 336.527 173.619 336.766 173.493 337.049C173.421 337.237 173.36 337.43 173.312 337.626C173.229 337.938 173.179 338.259 173.164 338.582C173.143 338.903 173.208 339.225 173.353 339.513C173.549 339.842 173.835 340.108 174.177 340.279C174.394 340.394 174.636 340.455 174.882 340.455C175.127 340.455 175.369 340.394 175.586 340.279C175.802 340.132 175.987 339.944 176.128 339.724C176.27 339.505 176.366 339.259 176.41 339.002C176.558 338.411 176.532 337.79 176.336 337.214Z" fill="#F5F5F5"/>
<path d="M180.044 337.997C179.977 337.725 179.816 337.486 179.59 337.322C179.364 337.158 179.087 337.079 178.808 337.098C178.529 337.138 178.264 337.246 178.036 337.411C177.808 337.576 177.623 337.794 177.498 338.046C177.423 338.21 177.357 338.378 177.3 338.549C177.207 338.829 177.152 339.119 177.135 339.414C177.119 339.704 177.194 339.992 177.349 340.238C177.532 340.496 177.792 340.689 178.091 340.79C178.276 340.865 178.476 340.898 178.675 340.886C178.875 340.875 179.069 340.82 179.245 340.724C179.649 340.459 179.942 340.054 180.069 339.587C180.236 339.069 180.227 338.509 180.044 337.997Z" fill="#F5F5F5"/>
<path d="M183.126 339.636C182.895 338.944 182.458 338.812 181.989 338.928C181.509 339.106 181.106 339.447 180.852 339.892C180.769 340.036 180.695 340.184 180.629 340.337C180.528 340.584 180.467 340.845 180.448 341.111C180.432 341.377 180.517 341.639 180.687 341.845C180.85 342.022 181.067 342.141 181.305 342.182C181.613 342.243 181.933 342.187 182.203 342.026C182.574 341.787 182.862 341.439 183.027 341.029C183.228 340.592 183.263 340.097 183.126 339.636Z" fill="#F5F5F5"/>
<path d="M182.928 343.031C182.827 343.205 182.768 343.399 182.755 343.6C182.747 343.7 182.763 343.801 182.801 343.894C182.84 343.988 182.9 344.07 182.977 344.135C183.13 344.216 183.303 344.249 183.474 344.232C183.646 344.214 183.809 344.146 183.942 344.036C184.24 343.856 184.491 343.608 184.675 343.311C184.764 343.162 184.822 342.995 184.846 342.823C184.87 342.65 184.86 342.475 184.815 342.306C184.386 340.963 183.192 342.496 182.928 343.031Z" fill="#F5F5F5"/>
<path d="M149.366 316.136C149.671 318.534 148.542 320.981 149.119 323.329C149.54 325.167 150.883 326.625 151.806 328.273C152.728 329.921 153.165 332.163 151.88 333.547C151.402 333.996 150.814 334.309 150.175 334.454C149.536 334.599 148.87 334.57 148.246 334.371C147.006 333.946 145.879 333.244 144.95 332.319C141.391 329.094 138.767 324.969 137.353 320.379C136.759 318.443 136.397 316.325 137.089 314.422C139.256 308.497 148.633 310.178 149.366 316.136Z" fill="#F5F5F5"/>
<path d="M150.528 309.247C150.297 309.716 149.929 310.103 149.474 310.36C149.206 310.544 148.896 310.655 148.572 310.684C148.249 310.713 147.924 310.658 147.628 310.524C147.377 310.344 147.168 310.111 147.016 309.843C146.864 309.574 146.772 309.275 146.746 308.967C146.587 308.224 146.633 307.453 146.878 306.734C147.011 306.375 147.232 306.054 147.519 305.801C147.807 305.548 148.153 305.37 148.526 305.284C148.895 305.209 149.279 305.263 149.614 305.437C149.948 305.611 150.213 305.894 150.364 306.24C150.594 307.006 150.883 308.497 150.528 309.247Z" fill="#F5F5F5"/>
<path d="M142.61 306.371C142.7 306.074 142.876 305.81 143.114 305.611C143.353 305.412 143.644 305.287 143.953 305.251C144.263 305.235 144.57 305.312 144.836 305.472C145.101 305.632 145.313 305.868 145.444 306.149C145.524 306.333 145.59 306.523 145.642 306.718C145.731 307.027 145.786 307.344 145.807 307.665C145.837 307.988 145.777 308.313 145.634 308.604C145.451 308.958 145.163 309.245 144.81 309.428C144.598 309.553 144.358 309.623 144.112 309.633C143.867 309.643 143.622 309.593 143.401 309.486C143.186 309.34 143.002 309.153 142.86 308.935C142.719 308.717 142.622 308.473 142.577 308.217C142.398 307.613 142.409 306.969 142.61 306.371Z" fill="#F5F5F5"/>
<path d="M138.885 307.228C138.946 306.952 139.104 306.706 139.331 306.537C139.558 306.367 139.839 306.285 140.121 306.306C140.4 306.34 140.666 306.441 140.897 306.6C141.128 306.759 141.317 306.972 141.448 307.22C141.527 307.383 141.596 307.551 141.654 307.723C141.755 308.002 141.818 308.293 141.843 308.588C141.86 308.877 141.788 309.165 141.637 309.412C141.462 309.673 141.208 309.872 140.912 309.981C140.729 310.06 140.53 310.097 140.331 310.09C140.131 310.083 139.936 310.032 139.759 309.939C139.356 309.68 139.062 309.281 138.935 308.819C138.743 308.309 138.726 307.749 138.885 307.228Z" fill="#F5F5F5"/>
<path d="M135.836 308.934C136.059 308.242 136.487 308.11 136.965 308.201C137.449 308.372 137.857 308.707 138.119 309.148C138.205 309.289 138.282 309.435 138.35 309.585C138.46 309.827 138.527 310.086 138.547 310.351C138.573 310.618 138.493 310.885 138.325 311.093C138.165 311.272 137.951 311.394 137.715 311.439C137.407 311.507 137.085 311.46 136.809 311.307C136.426 311.077 136.124 310.735 135.944 310.327C135.74 309.891 135.702 309.396 135.836 308.934Z" fill="#F5F5F5"/>
<path d="M136.117 312.296C136.219 312.47 136.283 312.664 136.306 312.865C136.315 312.966 136.301 313.067 136.263 313.162C136.226 313.256 136.167 313.341 136.092 313.408C135.939 313.49 135.766 313.525 135.594 313.511C135.421 313.496 135.256 313.432 135.12 313.326C134.818 313.154 134.563 312.911 134.378 312.617C134.284 312.469 134.222 312.304 134.195 312.131C134.168 311.958 134.177 311.781 134.221 311.612C134.609 310.285 135.836 311.793 136.117 312.296Z" fill="#F5F5F5"/>
<path d="M129.146 118.318C127.249 118.585 125.316 118.283 123.592 117.451C121.867 116.619 120.427 115.295 119.455 113.645C118.483 111.995 118.023 110.093 118.131 108.182C118.24 106.27 118.913 104.433 120.065 102.904C121.218 101.374 122.798 100.221 124.606 99.5897C126.414 98.9584 128.368 98.8774 130.222 99.3569C132.076 99.8365 133.746 100.855 135.021 102.284C136.296 103.713 137.119 105.487 137.386 107.384C137.738 109.926 137.069 112.504 135.525 114.553C133.98 116.603 131.686 117.957 129.146 118.318ZM127.184 104.228C126.295 104.35 125.461 104.734 124.79 105.331C124.118 105.927 123.638 106.709 123.412 107.578C123.185 108.447 123.22 109.364 123.515 110.213C123.809 111.061 124.348 111.804 125.064 112.346C125.781 112.888 126.642 113.205 127.538 113.258C128.435 113.311 129.327 113.096 130.102 112.642C130.876 112.187 131.499 111.513 131.89 110.705C132.282 109.897 132.425 108.99 132.301 108.101C132.134 106.91 131.501 105.834 130.542 105.108C129.583 104.382 128.376 104.066 127.184 104.228Z" fill="#E0E0E0"/>
<path d="M125.516 79.8481L121.876 80.3564L125.146 103.77L128.786 103.261L125.516 79.8481Z" fill="#E0E0E0"/>
<path d="M128.595 76.5895L121.767 77.5551L122.281 81.1933L129.109 80.2278L128.595 76.5895Z" fill="#E0E0E0"/>
<path d="M129.156 81.5392L122.733 82.435L123.241 86.0748L129.664 85.179L129.156 81.5392Z" fill="#E0E0E0"/>
<path d="M130.092 88.1376L124.486 88.9196L124.993 92.5594L130.6 91.7774L130.092 88.1376Z" fill="#E0E0E0"/>
<path d="M206 364.694C294.236 364.694 365.765 360.518 365.765 355.366C365.765 350.215 294.236 346.039 206 346.039C117.764 346.039 46.2346 350.215 46.2346 355.366C46.2346 360.518 117.764 364.694 206 364.694Z" fill="#F5F5F5"/>
<path d="M121.515 200.459C129.112 192.524 128.251 179.371 119.592 171.082C110.933 162.793 97.7556 162.506 90.1589 170.442C82.5621 178.378 83.4232 191.53 92.082 199.819C100.741 208.109 113.919 208.395 121.515 200.459Z" fill="#00529B"/>
<g opacity="0.8">
<path d="M121.515 200.459C129.112 192.524 128.251 179.371 119.592 171.082C110.933 162.793 97.7556 162.506 90.1589 170.442C82.5621 178.378 83.4232 191.53 92.082 199.819C100.741 208.109 113.919 208.395 121.515 200.459Z" fill="white"/>
</g>
<path d="M96.1526 172.414C95.9796 172.414 95.8111 172.359 95.6708 172.258C95.5305 172.157 95.4256 172.014 95.3709 171.85C95.3162 171.686 95.3145 171.509 95.3661 171.344C95.4176 171.179 95.5198 171.034 95.6582 170.931C98.4328 168.939 101.777 167.899 105.192 167.964C105.41 167.964 105.62 168.051 105.775 168.206C105.929 168.36 106.016 168.57 106.016 168.788C106.016 169.007 105.929 169.216 105.775 169.371C105.62 169.525 105.41 169.612 105.192 169.612C102.133 169.545 99.1356 170.47 96.647 172.249C96.5044 172.356 96.3309 172.414 96.1526 172.414Z" fill="#00529B"/>
<path d="M100.05 200.759C99.9148 200.759 99.7818 200.725 99.6628 200.66C97.1376 199.31 94.9463 197.412 93.2497 195.105C91.553 192.798 90.3939 190.141 89.8572 187.328C89.3337 184.895 89.3578 182.376 89.9278 179.953C90.4979 177.53 91.5996 175.265 93.1532 173.32C93.2931 173.152 93.4941 173.046 93.7119 173.026C93.9298 173.006 94.1468 173.073 94.315 173.213C94.4833 173.353 94.5891 173.554 94.6092 173.772C94.6293 173.99 94.562 174.207 94.4222 174.375C93.0187 176.135 92.0251 178.186 91.5134 180.378C91.0017 182.57 90.9848 184.849 91.464 187.048C91.9577 189.619 93.0185 192.048 94.5694 194.158C96.1203 196.268 98.1221 198.005 100.429 199.243C100.59 199.33 100.718 199.468 100.792 199.636C100.866 199.803 100.882 199.991 100.837 200.168C100.793 200.346 100.69 200.504 100.546 200.617C100.402 200.73 100.225 200.791 100.042 200.792L100.05 200.759Z" fill="#00529B"/>
<path d="M108.298 202.91C106.454 202.902 104.622 202.607 102.868 202.037C102.765 202.003 102.669 201.949 102.586 201.879C102.504 201.808 102.436 201.722 102.387 201.625C102.337 201.529 102.307 201.423 102.299 201.315C102.29 201.206 102.303 201.098 102.337 200.994C102.37 200.891 102.424 200.795 102.494 200.712C102.565 200.63 102.651 200.562 102.748 200.513C102.845 200.463 102.95 200.433 103.058 200.425C103.167 200.416 103.276 200.429 103.379 200.463C108.447 202.111 113.506 201.188 117.255 197.991C119.157 196.312 120.595 194.171 121.429 191.776C122.263 189.38 122.466 186.809 122.018 184.312C121.983 184.094 122.036 183.87 122.166 183.691C122.296 183.512 122.492 183.391 122.71 183.356C122.929 183.322 123.152 183.375 123.331 183.505C123.511 183.634 123.631 183.83 123.666 184.049C124.165 186.823 123.939 189.68 123.007 192.341C122.076 195.002 120.472 197.377 118.351 199.235C115.557 201.639 111.984 202.945 108.298 202.91Z" fill="#00529B"/>
<path d="M122.158 182.203C121.983 182.202 121.813 182.146 121.672 182.042C121.532 181.939 121.428 181.793 121.375 181.626C120.617 179.286 119.376 177.131 117.733 175.302C116.089 173.472 114.079 172.008 111.833 171.005C111.632 170.917 111.474 170.754 111.394 170.55C111.313 170.346 111.317 170.118 111.405 169.917C111.492 169.716 111.656 169.558 111.86 169.478C112.064 169.397 112.291 169.401 112.492 169.489C114.952 170.588 117.153 172.192 118.953 174.196C120.752 176.2 122.111 178.561 122.941 181.123C123.008 181.331 122.991 181.557 122.892 181.752C122.793 181.946 122.621 182.094 122.413 182.162C122.331 182.187 122.245 182.201 122.158 182.203Z" fill="#00529B"/>
<path d="M109.172 170.074C109.109 170.082 109.045 170.082 108.982 170.074C107.742 169.785 106.473 169.638 105.2 169.637C104.982 169.637 104.772 169.55 104.617 169.396C104.463 169.241 104.376 169.031 104.376 168.813C104.376 168.594 104.463 168.385 104.617 168.23C104.772 168.076 104.982 167.989 105.2 167.989C106.587 167.993 107.97 168.156 109.32 168.475C109.539 168.5 109.738 168.611 109.875 168.783C110.012 168.956 110.074 169.175 110.049 169.394C110.024 169.612 109.913 169.812 109.741 169.949C109.569 170.085 109.349 170.148 109.131 170.123L109.172 170.074Z" fill="#00529B"/>
<path d="M94.6364 189.759C94.468 189.76 94.3035 189.708 94.1651 189.613C94.0266 189.517 93.9208 189.381 93.8618 189.223C93.0895 187.23 92.8178 185.077 93.0706 182.953C93.3235 180.83 94.0931 178.801 95.3121 177.045C96.4643 175.38 98.0077 174.025 99.8065 173.097C101.605 172.168 103.605 171.696 105.629 171.722C105.847 171.722 106.057 171.808 106.211 171.963C106.366 172.117 106.453 172.327 106.453 172.546C106.453 172.764 106.366 172.974 106.211 173.128C106.057 173.283 105.847 173.37 105.629 173.37C103.87 173.349 102.133 173.759 100.569 174.563C99.005 175.367 97.6614 176.542 96.6552 177.984C95.5862 179.531 94.9137 181.317 94.6968 183.185C94.4798 185.053 94.7251 186.945 95.411 188.696C95.4856 188.9 95.4764 189.126 95.3853 189.324C95.2942 189.521 95.1287 189.675 94.9248 189.751C94.8298 189.769 94.7323 189.772 94.6364 189.759Z" fill="#00529B"/>
<path d="M107.705 199.169C105.235 199.086 102.822 198.409 100.67 197.194C98.5181 195.979 96.6914 194.262 95.345 192.19C95.245 192.008 95.2174 191.795 95.2678 191.593C95.3183 191.392 95.4429 191.216 95.6169 191.103C95.7908 190.989 96.0012 190.946 96.206 190.981C96.4107 191.016 96.5947 191.127 96.7211 191.292C97.9177 193.135 99.5405 194.664 101.452 195.748C103.364 196.832 105.509 197.44 107.705 197.521C107.924 197.521 108.133 197.608 108.288 197.762C108.442 197.917 108.529 198.126 108.529 198.345C108.529 198.564 108.442 198.773 108.288 198.928C108.133 199.082 107.924 199.169 107.705 199.169Z" fill="#00529B"/>
<path d="M110.787 198.815C110.599 198.82 110.414 198.761 110.264 198.647C110.114 198.533 110.008 198.371 109.963 198.188C109.911 197.977 109.945 197.752 110.057 197.566C110.17 197.379 110.352 197.244 110.564 197.191C117.247 195.543 118.977 189.685 118.425 185.186C117.708 179.319 113.078 173.378 105.604 173.37C105.385 173.37 105.176 173.283 105.021 173.128C104.867 172.974 104.78 172.764 104.78 172.546C104.78 172.327 104.867 172.117 105.021 171.963C105.176 171.808 105.385 171.722 105.604 171.722C114.033 171.722 119.258 178.396 120.065 184.988C120.889 191.786 117.321 197.208 110.96 198.79C110.903 198.804 110.845 198.813 110.787 198.815Z" fill="#00529B"/>
<path d="M102.258 177.918C102.102 177.917 101.95 177.871 101.818 177.787C101.687 177.702 101.582 177.582 101.517 177.44C101.424 177.242 101.413 177.016 101.488 176.81C101.562 176.605 101.715 176.437 101.912 176.344C103.176 175.786 104.544 175.505 105.925 175.52C106.144 175.52 106.353 175.607 106.508 175.762C106.662 175.916 106.749 176.126 106.749 176.344C106.749 176.563 106.662 176.772 106.508 176.927C106.353 177.081 106.144 177.168 105.925 177.168C104.788 177.169 103.664 177.413 102.629 177.885C102.51 177.924 102.383 177.936 102.258 177.918Z" fill="#00529B"/>
<path d="M107.557 195.329C105.47 195.296 103.436 194.665 101.697 193.511C99.9576 192.357 98.5854 190.729 97.7429 188.82C96.0372 185.103 96.5399 181.222 99.086 178.421C99.2338 178.261 99.439 178.165 99.6567 178.156C99.8745 178.147 100.087 178.224 100.248 178.371C100.408 178.519 100.503 178.724 100.513 178.942C100.522 179.16 100.444 179.372 100.297 179.533C99.2734 180.691 98.6246 182.132 98.4363 183.667C98.248 185.201 98.5291 186.756 99.2426 188.127C99.9708 189.792 101.172 191.206 102.697 192.193C104.222 193.18 106.004 193.698 107.82 193.681C109.195 193.671 110.537 193.264 111.685 192.508C112.832 191.752 113.737 190.68 114.289 189.421C114.909 187.936 115.096 186.306 114.828 184.719C114.56 183.132 113.847 181.654 112.773 180.456C112.702 180.374 112.649 180.278 112.615 180.176C112.582 180.073 112.569 179.964 112.577 179.856C112.586 179.748 112.615 179.643 112.664 179.547C112.713 179.45 112.781 179.364 112.863 179.294C112.946 179.224 113.041 179.17 113.144 179.137C113.247 179.103 113.355 179.09 113.463 179.099C113.571 179.107 113.676 179.137 113.773 179.186C113.869 179.235 113.955 179.303 114.025 179.385C115.304 180.819 116.15 182.588 116.463 184.484C116.777 186.38 116.546 188.327 115.797 190.097C115.121 191.641 114.013 192.957 112.607 193.887C111.2 194.817 109.556 195.32 107.87 195.337L107.557 195.329Z" fill="#00529B"/>
<path d="M111.026 178.643C110.87 178.644 110.718 178.598 110.589 178.511C109.198 177.616 107.58 177.136 105.925 177.127C105.707 177.127 105.497 177.04 105.343 176.886C105.188 176.731 105.101 176.522 105.101 176.303C105.101 176.085 105.188 175.875 105.343 175.72C105.497 175.566 105.707 175.479 105.925 175.479C107.893 175.486 109.818 176.058 111.471 177.127C111.62 177.223 111.734 177.366 111.796 177.532C111.858 177.699 111.864 177.881 111.814 178.051C111.764 178.222 111.66 178.372 111.518 178.478C111.376 178.585 111.203 178.643 111.026 178.643Z" fill="#00529B"/>
<path d="M107.12 191.613C106.157 191.606 105.208 191.389 104.338 190.976C103.468 190.564 102.699 189.965 102.085 189.223C101.293 188.317 100.779 187.202 100.604 186.011C100.428 184.82 100.599 183.604 101.097 182.508C101.54 181.513 102.266 180.67 103.185 180.084C104.103 179.498 105.174 179.195 106.263 179.212C106.482 179.212 106.691 179.299 106.846 179.453C107 179.608 107.087 179.817 107.087 180.036C107.087 180.254 107 180.464 106.846 180.618C106.691 180.773 106.482 180.86 106.263 180.86C105.493 180.846 104.735 181.057 104.083 181.469C103.432 181.88 102.915 182.473 102.596 183.175C102.234 183.984 102.112 184.881 102.245 185.757C102.378 186.634 102.76 187.454 103.346 188.119C103.929 188.834 104.704 189.368 105.579 189.66C106.454 189.952 107.395 189.989 108.29 189.767C109.019 189.603 109.685 189.233 110.209 188.702C110.734 188.17 111.094 187.499 111.248 186.768C111.296 186.555 111.425 186.369 111.609 186.252C111.793 186.135 112.016 186.095 112.229 186.142C112.335 186.164 112.436 186.207 112.525 186.269C112.614 186.33 112.691 186.409 112.75 186.5C112.809 186.591 112.849 186.693 112.869 186.8C112.888 186.907 112.886 187.016 112.863 187.122C112.645 188.153 112.137 189.101 111.398 189.853C110.659 190.604 109.721 191.129 108.694 191.366C108.181 191.511 107.653 191.594 107.12 191.613Z" fill="#00529B"/>
<path d="M111.916 185.087C111.734 185.095 111.555 185.043 111.405 184.939C111.256 184.834 111.146 184.684 111.092 184.51C110.763 183.478 110.12 182.574 109.253 181.924C108.386 181.274 107.338 180.911 106.255 180.884C106.036 180.884 105.827 180.798 105.672 180.643C105.518 180.489 105.431 180.279 105.431 180.06C105.431 179.842 105.518 179.632 105.672 179.478C105.827 179.323 106.036 179.236 106.255 179.236C107.687 179.268 109.075 179.746 110.223 180.602C111.372 181.459 112.226 182.652 112.666 184.016C112.699 184.119 112.711 184.228 112.702 184.336C112.694 184.444 112.663 184.55 112.614 184.646C112.564 184.743 112.495 184.828 112.412 184.898C112.329 184.968 112.233 185.021 112.13 185.054C112.06 185.074 111.988 185.085 111.916 185.087Z" fill="#00529B"/>
<path d="M107.343 188.185C107.124 188.185 106.914 188.098 106.76 187.944C106.605 187.789 106.519 187.58 106.519 187.361C106.519 187.143 106.605 186.933 106.76 186.778C106.914 186.624 107.124 186.537 107.343 186.537C107.455 186.537 107.566 186.514 107.67 186.47C107.773 186.426 107.866 186.36 107.943 186.279C108.021 186.197 108.08 186.1 108.119 185.994C108.157 185.888 108.173 185.776 108.167 185.664C108.171 185.503 108.143 185.344 108.085 185.194C108.028 185.044 107.941 184.907 107.829 184.792C107.718 184.676 107.585 184.583 107.438 184.519C107.291 184.456 107.132 184.422 106.972 184.419C106.851 184.423 106.732 184.45 106.621 184.499C106.511 184.549 106.412 184.62 106.329 184.708C106.245 184.807 106.181 184.923 106.141 185.047C106.101 185.172 106.087 185.303 106.098 185.433C106.105 185.541 106.09 185.65 106.054 185.752C106.019 185.855 105.964 185.949 105.892 186.03C105.82 186.111 105.733 186.177 105.635 186.225C105.538 186.272 105.432 186.3 105.324 186.306C105.215 186.313 105.107 186.298 105.005 186.263C104.902 186.227 104.808 186.172 104.727 186.1C104.645 186.028 104.579 185.941 104.532 185.843C104.484 185.746 104.457 185.64 104.45 185.532C104.421 185.186 104.463 184.838 104.573 184.509C104.683 184.18 104.859 183.877 105.091 183.618C105.322 183.36 105.604 183.151 105.919 183.006C106.234 182.86 106.575 182.78 106.922 182.771C107.299 182.772 107.673 182.848 108.02 182.995C108.368 183.141 108.683 183.355 108.948 183.624C109.212 183.893 109.42 184.212 109.561 184.562C109.701 184.912 109.771 185.287 109.765 185.664C109.772 185.992 109.713 186.319 109.591 186.625C109.47 186.931 109.289 187.209 109.059 187.444C108.829 187.679 108.554 187.865 108.251 187.992C107.947 188.12 107.622 188.185 107.293 188.185H107.343Z" fill="#00529B"/>
<path d="M128.544 185.441C129.549 196.92 121.054 206.222 109.592 206.222H108.702C119.628 205.662 127.563 196.582 126.591 185.466C126.03 180.025 123.562 174.958 119.625 171.161C115.687 167.364 110.534 165.081 105.076 164.718C105.365 164.718 105.662 164.718 105.958 164.718C117.453 164.668 127.572 173.971 128.544 185.441Z" fill="#00529B"/>
<g opacity="0.4">
<path d="M128.544 185.441C129.549 196.92 121.054 206.222 109.592 206.222H108.702C119.628 205.662 127.563 196.582 126.591 185.466C126.03 180.025 123.562 174.958 119.625 171.161C115.687 167.364 110.534 165.081 105.076 164.718C105.365 164.718 105.662 164.718 105.958 164.718C117.453 164.668 127.572 173.971 128.544 185.441Z" fill="white"/>
</g>
<path d="M145.37 84.1634C145.39 84.4094 145.423 84.6541 145.469 84.8967C145.78 86.4844 146.595 87.9293 147.793 89.0167C149.15 90.2876 150.935 91.0022 152.794 91.019H222.414C223.227 91.0354 224.035 90.8901 224.79 90.5914C225.546 90.2927 226.235 89.8467 226.817 89.2793C227.399 88.7119 227.863 88.0344 228.181 87.2862C228.498 86.5381 228.664 85.7342 228.668 84.9214C228.681 84.6771 228.681 84.4324 228.668 84.1881C228.474 82.3432 227.614 80.6323 226.249 79.3763C224.883 78.1203 223.107 77.4053 221.252 77.3654H151.616C150.743 77.3477 149.876 77.516 149.073 77.859C148.27 78.202 147.55 78.7119 146.959 79.3549C146.368 79.9978 145.921 80.7591 145.647 81.5881C145.373 82.4172 145.279 83.295 145.37 84.1634Z" fill="#00529B"/>
<path opacity="0.8" d="M145.37 84.1634C145.39 84.4094 145.423 84.6541 145.469 84.8967C145.78 86.4844 146.595 87.9293 147.793 89.0167C149.15 90.2876 150.935 91.0022 152.794 91.019H222.414C223.227 91.0354 224.035 90.8901 224.79 90.5914C225.546 90.2927 226.235 89.8467 226.817 89.2793C227.399 88.7119 227.863 88.0344 228.181 87.2862C228.498 86.5381 228.664 85.7342 228.668 84.9214C228.681 84.6771 228.681 84.4324 228.668 84.1881C228.474 82.3432 227.614 80.6323 226.249 79.3763C224.883 78.1203 223.107 77.4053 221.252 77.3654H151.616C150.743 77.3477 149.876 77.516 149.073 77.859C148.27 78.202 147.55 78.7119 146.959 79.3549C146.368 79.9978 145.921 80.7591 145.647 81.5881C145.373 82.4172 145.279 83.295 145.37 84.1634Z" fill="white"/>
<path d="M228.668 84.872C228.668 85.0927 228.652 85.313 228.619 85.5312C228.373 83.728 227.491 82.0723 226.13 80.8632C224.77 79.6542 223.022 78.9717 221.203 78.9392L147.183 79.104C147.77 78.5332 148.463 78.0837 149.224 77.7811C149.985 77.4785 150.797 77.3289 151.616 77.3406H221.236C223.09 77.3806 224.867 78.0956 226.232 79.3516C227.597 80.6076 228.458 82.3184 228.652 84.1634C228.669 84.3992 228.674 84.6357 228.668 84.872Z" fill="#00529B"/>
<path opacity="0.5" d="M228.668 84.872C228.668 85.0927 228.652 85.313 228.619 85.5312C228.373 83.728 227.491 82.0723 226.13 80.8632C224.77 79.6542 223.022 78.9717 221.203 78.9392L147.183 79.104C147.77 78.5332 148.463 78.0837 149.224 77.7811C149.985 77.4785 150.797 77.3289 151.616 77.3406H221.236C223.09 77.3806 224.867 78.0956 226.232 79.3516C227.597 80.6076 228.458 82.3184 228.652 84.1634C228.669 84.3992 228.674 84.6357 228.668 84.872Z" fill="white"/>
<path d="M216.712 80.6366L217.009 83.9326L220.107 82.779L220.84 84.427L217.676 85.4817L219.95 88.2751L218.525 89.3216L216.308 86.4211L214.66 89.3216L213.103 88.2751L214.858 85.4817L211.562 84.427L212.007 82.779L215.344 83.8914L215.048 80.5954L216.712 80.6366Z" fill="#00529B"/>
<path d="M197.636 80.6366L197.933 83.9326L201.031 82.779L201.773 84.427L198.584 85.5065L200.858 88.2998L199.441 89.3463L197.224 86.4458L195.576 89.3463L194.011 88.2998L195.774 85.5065L192.478 84.4517L192.923 82.8037L196.26 83.9161L195.972 80.6201L197.636 80.6366Z" fill="#00529B"/>
<path d="M178.602 80.6366L178.89 83.9326L181.989 82.779L182.73 84.427L179.558 85.4817L181.832 88.2751L180.456 89.3463L178.239 86.4458L176.591 89.3463L175.034 88.2998L176.789 85.5065L173.493 84.4517L173.946 82.8037L177.242 83.9161L176.954 80.6201L178.602 80.6366Z" fill="#00529B"/>
<path d="M159.559 80.6366L159.848 83.9326L162.954 82.779L163.688 84.427L160.515 85.4817L162.798 88.2751L161.372 89.3216L159.156 86.4211L157.508 89.3216L155.95 88.2751L157.705 85.4817L154.409 84.427L154.854 82.779L158.15 83.8914L157.862 80.5954L159.559 80.6366Z" fill="#00529B"/>
<path d="M205.712 74.1106H202.465V74.9346H205.712V74.1106Z" fill="#00529B"/>
<path d="M219.662 74.1106H209.074V74.9346H219.662V74.1106Z" fill="#00529B"/>
<path opacity="0.8" d="M327.779 104.846L324.409 143.376C324.279 144.606 323.705 145.746 322.795 146.583C321.885 147.42 320.701 147.897 319.465 147.924H292.709C292.13 147.928 291.557 147.809 291.027 147.575C290.497 147.342 290.022 147 289.634 146.57C289.245 146.141 288.951 145.635 288.771 145.085C288.591 144.534 288.529 143.952 288.589 143.376L291.96 104.838C292.084 103.606 292.657 102.463 293.568 101.624C294.479 100.786 295.666 100.311 296.904 100.289H323.659C324.239 100.286 324.813 100.405 325.343 100.639C325.874 100.873 326.349 101.216 326.738 101.646C327.127 102.076 327.421 102.583 327.6 103.135C327.779 103.686 327.84 104.269 327.779 104.846Z" fill="#00529B"/>
<path opacity="0.8" d="M327.779 104.846L324.409 143.376C324.279 144.606 323.705 145.746 322.795 146.583C321.885 147.42 320.701 147.897 319.465 147.924H292.709C292.13 147.928 291.557 147.809 291.027 147.575C290.497 147.342 290.022 147 289.634 146.57C289.245 146.141 288.951 145.635 288.771 145.085C288.591 144.534 288.529 143.952 288.589 143.376L291.96 104.838C292.084 103.606 292.657 102.463 293.568 101.624C294.479 100.786 295.666 100.311 296.904 100.289H323.659C324.239 100.286 324.813 100.405 325.343 100.639C325.874 100.873 326.349 101.216 326.738 101.646C327.127 102.076 327.421 102.583 327.6 103.135C327.779 103.686 327.84 104.269 327.779 104.846Z" fill="white"/>
<path d="M294.399 111.059H294.325C294.107 111.04 293.906 110.936 293.766 110.769C293.625 110.602 293.556 110.386 293.575 110.169L293.888 106.642C293.906 106.437 294.001 106.246 294.154 106.107C294.306 105.968 294.506 105.891 294.712 105.892H298.436C298.655 105.892 298.864 105.979 299.019 106.134C299.173 106.288 299.26 106.498 299.26 106.716C299.26 106.935 299.173 107.144 299.019 107.299C298.864 107.453 298.655 107.54 298.436 107.54H295.47L295.223 110.309C295.204 110.514 295.109 110.705 294.957 110.844C294.804 110.983 294.605 111.06 294.399 111.059Z" fill="#00529B"/>
<path d="M324.359 111.059H324.285C324.068 111.04 323.867 110.936 323.726 110.769C323.586 110.602 323.517 110.386 323.535 110.169L323.766 107.54H320.948C320.729 107.54 320.52 107.453 320.365 107.299C320.211 107.144 320.124 106.935 320.124 106.716C320.124 106.498 320.211 106.288 320.365 106.134C320.52 105.979 320.729 105.892 320.948 105.892H324.656C324.771 105.892 324.884 105.915 324.989 105.961C325.095 106.007 325.189 106.075 325.266 106.159C325.344 106.244 325.403 106.344 325.44 106.452C325.477 106.561 325.49 106.676 325.48 106.79L325.167 110.309C325.149 110.511 325.056 110.7 324.907 110.839C324.758 110.977 324.563 111.055 324.359 111.059Z" fill="#00529B"/>
<path d="M295.816 137.649H292.091C291.979 137.649 291.867 137.625 291.763 137.58C291.66 137.535 291.567 137.468 291.49 137.386C291.413 137.302 291.354 137.203 291.317 137.095C291.28 136.987 291.266 136.873 291.276 136.759L291.581 133.233C291.599 133.014 291.704 132.812 291.871 132.67C292.039 132.529 292.256 132.46 292.475 132.479C292.693 132.497 292.895 132.602 293.037 132.769C293.178 132.937 293.247 133.154 293.229 133.373L292.998 136.001H295.816C296.034 136.001 296.244 136.088 296.399 136.243C296.553 136.397 296.64 136.607 296.64 136.825C296.64 137.044 296.553 137.253 296.399 137.408C296.244 137.562 296.034 137.649 295.816 137.649Z" fill="#00529B"/>
<path d="M322.027 137.649H318.311C318.093 137.649 317.883 137.562 317.729 137.408C317.574 137.253 317.487 137.044 317.487 136.825C317.487 136.607 317.574 136.397 317.729 136.243C317.883 136.088 318.093 136.001 318.311 136.001H321.278L321.517 133.233C321.535 133.015 321.64 132.814 321.807 132.674C321.973 132.533 322.189 132.464 322.406 132.483C322.624 132.502 322.825 132.606 322.965 132.773C323.106 132.94 323.175 133.155 323.156 133.373L322.851 136.899C322.833 137.105 322.738 137.296 322.585 137.435C322.433 137.573 322.234 137.65 322.027 137.649Z" fill="#00529B"/>
<path d="M319.191 124.364C321.052 117.15 317.858 110.09 312.059 108.594C306.26 107.099 300.051 111.734 298.191 118.948C296.33 126.162 299.524 133.222 305.323 134.717C311.122 136.213 317.331 131.577 319.191 124.364Z" fill="white"/>
<path d="M311.925 142.165H301.254L302.186 131.494H312.856L311.925 142.165Z" fill="white"/>
<path d="M324.409 143.376C324.279 144.606 323.705 145.746 322.795 146.583C321.885 147.42 320.701 147.897 319.465 147.924H292.709C292.13 147.928 291.557 147.809 291.027 147.575C290.497 147.342 290.022 147 289.634 146.57C289.245 146.141 288.951 145.635 288.771 145.085C288.591 144.534 288.529 143.952 288.589 143.376C288.589 143.376 300.884 139.487 302.4 139.487H311.9L324.409 143.376Z" fill="white"/>
<path d="M329.333 116.106L328.086 131.241L328.907 131.309L330.154 116.174L329.333 116.106Z" fill="#00529B"/>
<path d="M330.2 109.18L329.955 112.153L330.776 112.221L331.021 109.248L330.2 109.18Z" fill="#00529B"/>
<path d="M301.485 201.114H298.239V201.938H301.485V201.114Z" fill="#00529B"/>
<path d="M315.435 201.114H304.847V201.938H315.435V201.114Z" fill="#00529B"/>
<path d="M334.816 187.048L332.764 210.532C332.658 211.57 332.174 212.533 331.406 213.239C330.638 213.945 329.638 214.345 328.595 214.364C328.104 214.372 327.617 214.276 327.166 214.082C326.715 213.888 326.31 213.601 325.979 213.238C325.648 212.876 325.397 212.447 325.245 211.98C325.092 211.514 325.04 211.02 325.093 210.532L327.128 187.048C327.317 185.296 327.132 183.525 326.585 181.85C326.037 180.176 325.14 178.637 323.953 177.335C322.765 176.034 321.314 175 319.697 174.302C318.079 173.604 316.332 173.258 314.57 173.287H306.198C302.454 173.358 298.865 174.797 296.108 177.332C293.352 179.867 291.618 183.323 291.235 187.048L290.411 196.639H282.747L283.571 187.048C284.601 175.232 295.058 165.624 306.866 165.624H315.271C318.013 165.579 320.733 166.117 323.252 167.204C325.77 168.291 328.028 169.9 329.877 171.927C331.725 173.953 333.121 176.349 333.973 178.956C334.825 181.563 335.112 184.321 334.816 187.048Z" fill="#00529B"/>
<g opacity="0.5">
<path d="M334.816 187.048L332.764 210.532C332.658 211.57 332.174 212.533 331.406 213.239C330.638 213.945 329.638 214.345 328.595 214.364C328.104 214.372 327.617 214.276 327.166 214.082C326.715 213.888 326.31 213.601 325.979 213.238C325.648 212.876 325.397 212.447 325.245 211.98C325.092 211.514 325.04 211.02 325.093 210.532L327.128 187.048C327.317 185.296 327.132 183.525 326.585 181.85C326.037 180.176 325.14 178.637 323.953 177.335C322.765 176.034 321.314 175 319.697 174.302C318.079 173.604 316.332 173.258 314.57 173.287H306.198C302.454 173.358 298.865 174.797 296.108 177.332C293.352 179.867 291.618 183.323 291.235 187.048L290.411 196.639H282.747L283.571 187.048C284.601 175.232 295.058 165.624 306.866 165.624H315.271C318.013 165.579 320.733 166.117 323.252 167.204C325.77 168.291 328.028 169.9 329.877 171.927C331.725 173.953 333.121 176.349 333.973 178.956C334.825 181.563 335.112 184.321 334.816 187.048Z" fill="white"/>
</g>
<path d="M335.368 209.675L331.372 255.44C331.226 256.859 330.566 258.175 329.515 259.14C328.464 260.104 327.096 260.65 325.669 260.672H279.905C279.234 260.685 278.569 260.554 277.953 260.289C277.337 260.024 276.785 259.631 276.333 259.136C275.881 258.641 275.539 258.055 275.331 257.418C275.123 256.781 275.053 256.106 275.125 255.44L279.13 209.675C279.222 208.763 279.528 207.885 280.024 207.113C280.519 206.341 281.19 205.697 281.981 205.234C282.84 204.708 283.825 204.423 284.832 204.41H330.589C331.524 204.405 332.441 204.665 333.234 205.16C333.974 205.639 334.566 206.316 334.943 207.114C335.32 207.911 335.467 208.798 335.368 209.675Z" fill="#00529B"/>
<path d="M287.782 229.665L299.672 247.966L338.886 208.752C338.947 208.679 338.98 208.587 338.978 208.493C338.977 208.398 338.941 208.307 338.879 208.236C338.816 208.166 338.73 208.12 338.636 208.107C338.542 208.094 338.447 208.116 338.367 208.167L300.999 237.46L293.937 226.081L287.782 229.665Z" fill="white"/>
<path d="M100.528 141.159H70.7157C69.3363 141.134 68.0138 140.605 66.9981 139.671C65.9824 138.738 65.3439 137.464 65.2031 136.092L62.624 106.296C62.5524 105.651 62.6193 104.998 62.8201 104.38C63.0209 103.763 63.3511 103.196 63.7885 102.716C64.226 102.237 64.7608 101.856 65.3571 101.599C65.9534 101.343 66.5976 101.216 67.2466 101.228H97.026C98.4002 101.26 99.7157 101.792 100.725 102.725C101.734 103.659 102.367 104.928 102.506 106.296L105.109 136.075C105.183 136.718 105.119 137.37 104.922 137.986C104.725 138.602 104.399 139.17 103.965 139.651C103.532 140.131 103.002 140.515 102.409 140.775C101.816 141.035 101.175 141.166 100.528 141.159Z" fill="#00529B"/>
<path opacity="0.8" d="M100.528 141.159H70.7157C69.3363 141.134 68.0138 140.605 66.9981 139.671C65.9824 138.738 65.3439 137.464 65.2031 136.092L62.624 106.296C62.5524 105.651 62.6193 104.998 62.8201 104.38C63.0209 103.763 63.3511 103.196 63.7885 102.716C64.226 102.237 64.7608 101.856 65.3571 101.599C65.9534 101.343 66.5976 101.216 67.2466 101.228H97.026C98.4002 101.26 99.7157 101.792 100.725 102.725C101.734 103.659 102.367 104.928 102.506 106.296L105.109 136.075C105.183 136.718 105.119 137.37 104.922 137.986C104.725 138.602 104.399 139.17 103.965 139.651C103.532 140.131 103.002 140.515 102.409 140.775C101.816 141.035 101.175 141.166 100.528 141.159Z" fill="white"/>
<path d="M65.2196 124.201C65.2196 124.201 75.808 109.46 83.603 109.839C91.3981 110.218 104.351 123.847 104.351 123.847C104.351 123.847 85.2593 133.875 65.2196 124.201Z" fill="white"/>
<path d="M65.5574 124.424L64.89 123.946C65.3185 123.345 75.4125 109.402 83.3064 109.402H83.6277C91.5052 109.782 104.112 122.982 104.648 123.542L104.055 124.111C103.923 123.979 91.1344 110.589 83.5865 110.226H83.3064C75.808 110.243 65.6563 124.3 65.5574 124.424Z" fill="#263238"/>
<path d="M64.1237 124.721C62.5251 124.721 60.4486 124.127 59.7153 121.87C59.6815 121.766 59.6903 121.653 59.7397 121.555C59.7891 121.458 59.8752 121.384 59.979 121.35C60.0303 121.333 60.0847 121.325 60.139 121.329C60.1932 121.333 60.2462 121.347 60.2947 121.372C60.3431 121.396 60.3862 121.431 60.4211 121.472C60.4561 121.514 60.4822 121.562 60.4981 121.614C61.4457 124.531 64.9889 123.831 65.1372 123.798C65.2441 123.778 65.3544 123.801 65.445 123.86C65.5357 123.92 65.5996 124.013 65.6234 124.119C65.6342 124.172 65.6345 124.227 65.6242 124.28C65.6139 124.333 65.5932 124.384 65.5634 124.429C65.5335 124.474 65.4951 124.513 65.4503 124.543C65.4054 124.573 65.355 124.594 65.302 124.605C64.9139 124.682 64.5193 124.721 64.1237 124.721Z" fill="#263238"/>
<path d="M70.4108 118.392C70.3188 118.394 70.2289 118.365 70.1554 118.31C70.0318 118.211 67.1066 115.953 66.365 113.654C66.3312 113.551 66.34 113.438 66.3894 113.34C66.4388 113.243 66.5249 113.169 66.6286 113.135C66.7325 113.104 66.8445 113.113 66.9413 113.163C67.038 113.212 67.112 113.296 67.1478 113.399C67.8152 115.451 70.625 117.634 70.658 117.651C70.7441 117.717 70.8003 117.816 70.8142 117.924C70.8281 118.032 70.7986 118.141 70.7322 118.228C70.6946 118.278 70.6462 118.318 70.5905 118.347C70.5348 118.376 70.4734 118.391 70.4108 118.392Z" fill="#263238"/>
<path d="M76.4589 112.781C76.3511 112.775 76.2495 112.728 76.1746 112.65C76.0997 112.572 76.0571 112.469 76.0552 112.361C75.574 110.566 74.9767 108.804 74.2671 107.087C74.0611 106.543 73.9128 106.148 73.8798 106.049C73.8634 105.996 73.8577 105.941 73.8629 105.886C73.8682 105.832 73.8844 105.779 73.9105 105.73C73.9366 105.682 73.9721 105.639 74.015 105.605C74.0578 105.57 74.1071 105.545 74.16 105.53C74.2119 105.515 74.2663 105.51 74.3201 105.516C74.3739 105.522 74.426 105.538 74.4734 105.564C74.5209 105.59 74.5627 105.625 74.5966 105.667C74.6305 105.709 74.6557 105.758 74.6709 105.81C74.6709 105.909 74.8439 106.271 75.0334 106.79C76.187 109.814 76.8957 111.8 76.8792 112.377C76.8792 112.432 76.8683 112.485 76.847 112.536C76.8256 112.586 76.7944 112.631 76.7552 112.669C76.7159 112.706 76.6694 112.736 76.6185 112.755C76.5676 112.774 76.5133 112.783 76.4589 112.781Z" fill="#263238"/>
<path d="M83.603 110.251C83.5003 110.248 83.4022 110.208 83.3266 110.138C83.251 110.069 83.2028 109.974 83.191 109.872L82.6142 103.28C82.6044 103.171 82.6384 103.062 82.7087 102.978C82.779 102.894 82.8799 102.841 82.9892 102.831C83.0984 102.821 83.2071 102.855 83.2914 102.926C83.3756 102.996 83.4284 103.097 83.4382 103.206L84.015 109.847C84.0221 109.955 83.9876 110.061 83.9185 110.144C83.8495 110.227 83.7513 110.28 83.6442 110.292L83.603 110.251Z" fill="#263238"/>
<path d="M105.587 124.267C105.184 124.269 104.782 124.236 104.384 124.169C104.331 124.158 104.281 124.137 104.236 124.106C104.191 124.076 104.153 124.037 104.123 123.992C104.093 123.947 104.072 123.896 104.062 123.843C104.052 123.79 104.052 123.735 104.063 123.682C104.072 123.629 104.091 123.578 104.12 123.533C104.15 123.488 104.188 123.449 104.233 123.419C104.277 123.388 104.328 123.368 104.381 123.358C104.434 123.348 104.488 123.349 104.541 123.361C104.541 123.361 106.56 123.748 107.796 122.875C108.06 122.682 108.281 122.436 108.443 122.152C108.605 121.868 108.704 121.552 108.735 121.227C108.743 121.173 108.762 121.121 108.79 121.074C108.818 121.027 108.855 120.986 108.899 120.954C108.943 120.921 108.993 120.898 109.046 120.884C109.1 120.871 109.155 120.869 109.209 120.877C109.263 120.885 109.315 120.903 109.362 120.932C109.409 120.96 109.45 120.997 109.482 121.041C109.515 121.085 109.538 121.135 109.551 121.188C109.565 121.241 109.567 121.296 109.559 121.35C109.509 121.784 109.369 122.202 109.148 122.579C108.926 122.955 108.629 123.28 108.274 123.534C107.473 124.044 106.536 124.3 105.587 124.267Z" fill="#263238"/>
<path d="M98.1878 117.956C98.1299 117.956 98.0725 117.944 98.0198 117.919C97.9671 117.895 97.9204 117.86 97.883 117.815C97.8443 117.777 97.8137 117.732 97.7928 117.681C97.7719 117.631 97.7611 117.577 97.7611 117.523C97.7611 117.469 97.7719 117.415 97.7928 117.365C97.8137 117.314 97.8443 117.269 97.883 117.23C97.883 117.23 100.355 115.055 100.619 113.028C100.637 112.921 100.696 112.825 100.784 112.76C100.871 112.696 100.98 112.668 101.088 112.682C101.142 112.69 101.193 112.709 101.24 112.737C101.286 112.765 101.327 112.801 101.359 112.845C101.391 112.889 101.414 112.938 101.427 112.991C101.44 113.043 101.443 113.098 101.434 113.152C101.088 115.475 98.5339 117.75 98.4268 117.848C98.3624 117.911 98.2777 117.949 98.1878 117.956Z" fill="#263238"/>
<path d="M91.225 113.168H91.1509C91.0435 113.148 90.9481 113.087 90.8851 112.998C90.822 112.908 90.7962 112.798 90.813 112.69C90.813 112.641 91.7194 107.342 91.8842 106.255C91.8923 106.201 91.911 106.149 91.9392 106.102C91.9674 106.055 92.0046 106.014 92.0486 105.982C92.0926 105.949 92.1426 105.925 92.1957 105.912C92.2487 105.899 92.3039 105.896 92.358 105.905C92.4121 105.913 92.4641 105.931 92.511 105.96C92.5579 105.988 92.5987 106.025 92.6313 106.069C92.6638 106.113 92.6873 106.163 92.7005 106.216C92.7137 106.269 92.7163 106.324 92.7082 106.378C92.5434 107.474 91.6453 112.781 91.637 112.83C91.6195 112.926 91.5684 113.013 91.493 113.075C91.4175 113.137 91.3226 113.17 91.225 113.168Z" fill="#263238"/>
<path d="M91.4671 125.928C94.8784 122.364 94.4885 116.455 90.5963 112.729C86.7041 109.003 80.7834 108.871 77.3721 112.435C73.9608 115.998 74.3507 121.907 78.2429 125.633C82.1351 129.359 88.0558 129.491 91.4671 125.928Z" fill="#00529B"/>
<path opacity="0.3" d="M88.2834 119.175C88.2957 118.967 88.2957 118.757 88.2834 118.549C88.1727 117.475 87.6722 116.478 86.8766 115.748C86.081 115.017 85.0454 114.604 83.9656 114.585C83.4581 114.577 82.9545 114.676 82.4883 114.877C82.0221 115.078 81.6041 115.375 81.2619 115.75C80.9197 116.125 80.6613 116.569 80.5037 117.051C80.3462 117.534 80.2932 118.044 80.3482 118.549C80.3619 118.761 80.4006 118.972 80.4636 119.175H75.0911C74.9598 117.987 75.0832 116.784 75.4531 115.648C75.823 114.511 76.4309 113.466 77.2363 112.583C78.0417 111.699 79.0261 110.998 80.1239 110.525C81.2218 110.052 82.4078 109.818 83.603 109.839C86.1445 109.886 88.5809 110.862 90.4526 112.581C92.3242 114.301 93.5018 116.647 93.763 119.175H88.2834Z" fill="black"/>
<path opacity="0.7" d="M88.2751 118.549C88.2874 118.757 88.2874 118.967 88.2751 119.175C88.2159 120.092 87.805 120.951 87.128 121.573C86.451 122.195 85.5602 122.531 84.6413 122.512C83.6726 122.494 82.7369 122.158 81.9788 121.554C81.2207 120.951 80.6824 120.115 80.4471 119.175C80.3841 118.972 80.3454 118.761 80.3318 118.549C80.2767 118.044 80.3297 117.534 80.4872 117.051C80.6448 116.569 80.9032 116.125 81.2454 115.75C81.5876 115.375 82.0057 115.078 82.4718 114.877C82.938 114.676 83.4416 114.577 83.9491 114.585C85.0304 114.602 86.068 115.015 86.8653 115.745C87.6627 116.476 88.1643 117.473 88.2751 118.549Z" fill="black"/>
<path opacity="0.7" d="M90.4258 114.66C90.4702 115.071 90.4267 115.487 90.298 115.88C90.1694 116.273 89.9586 116.635 89.6796 116.94C89.4006 117.246 89.0598 117.488 88.6799 117.652C88.2999 117.816 87.8895 117.897 87.4758 117.89C86.5974 117.872 85.7557 117.534 85.1091 116.939C84.4626 116.344 84.0559 115.534 83.9656 114.66C83.9198 114.248 83.9623 113.831 84.0905 113.438C84.2186 113.044 84.4294 112.682 84.7086 112.376C84.9879 112.07 85.3292 111.828 85.7098 111.664C86.0904 111.501 86.5015 111.421 86.9155 111.429C87.7945 111.445 88.6372 111.783 89.2841 112.378C89.931 112.973 90.3372 113.785 90.4258 114.66Z" fill="white"/>
<path d="M77.6702 97.5451H74.4237V98.3691H77.6702V97.5451Z" fill="#00529B"/>
<path d="M91.6206 97.5451H81.0322V98.3691H91.6206V97.5451Z" fill="#00529B"/>
<path d="M227.424 157.92L227.704 158.257L228.083 158.694C228.355 158.983 228.619 159.287 228.907 159.568C229.476 160.161 230.094 160.738 230.72 161.323C231.971 162.477 233.283 163.563 234.65 164.578C236.043 165.616 237.51 166.563 238.976 167.503C239.8 167.948 240.476 168.417 241.251 168.846L243.039 169.835C243.299 169.949 243.591 169.967 243.863 169.884C244.44 169.711 247.752 166.432 248.807 165.212C251.147 162.534 254.69 159.007 256.602 156.008L258.736 158.95C257.387 162.624 255.597 166.122 253.405 169.365C252.226 171.118 250.812 172.701 249.202 174.07C248.236 174.884 247.146 175.538 245.972 176.006C244.485 176.6 242.852 176.724 241.292 176.361C240.889 176.262 240.494 176.13 240.114 175.965L239.372 175.644L238.037 175.034C237.139 174.639 236.274 174.161 235.4 173.724C233.654 172.792 231.96 171.766 230.324 170.65C228.676 169.517 227.094 168.29 225.586 166.975C224.804 166.291 224.103 165.599 223.386 164.849C223.032 164.479 222.67 164.091 222.323 163.688L221.813 163.061C221.623 162.831 221.483 162.658 221.228 162.303L227.424 157.92Z" fill="#FFB573"/>
<path d="M256.264 156.461L260.087 148.287L263.738 154.83C263.738 154.83 261.34 158.95 258.736 158.95L256.264 156.461Z" fill="#FFB573"/>
<path d="M264.422 144.892L268.278 149.853L263.771 154.821L260.12 148.287L264.422 144.892Z" fill="#FFB573"/>
<path d="M263.078 157.079H269.151C269.323 157.078 269.487 157.013 269.614 156.897C269.74 156.782 269.819 156.623 269.835 156.453L271.096 141.893C271.105 141.798 271.094 141.702 271.064 141.611C271.034 141.52 270.985 141.437 270.921 141.366C270.856 141.295 270.778 141.239 270.69 141.201C270.602 141.162 270.508 141.143 270.412 141.143H264.347C264.175 141.144 264.009 141.21 263.883 141.328C263.756 141.445 263.678 141.605 263.664 141.777L262.386 156.329C262.378 156.425 262.39 156.521 262.421 156.612C262.453 156.703 262.502 156.786 262.567 156.856C262.633 156.927 262.712 156.983 262.8 157.021C262.888 157.06 262.983 157.079 263.078 157.079Z" fill="#00529B"/>
<path opacity="0.3" d="M263.144 155.621H269.226L270.363 142.61H264.282L263.144 155.621Z" fill="white"/>
<path d="M262.749 153.775L263.828 153.223C264.378 152.943 264.885 152.588 265.336 152.168L265.534 151.451C265.419 151.26 265.245 151.112 265.039 151.027C264.833 150.942 264.605 150.926 264.389 150.982L263.49 151.229L259.033 151.567L258.926 153.445L260.227 155.456H260.672C261.163 155.473 261.643 155.313 262.025 155.004C262.407 154.695 262.664 154.258 262.749 153.775Z" fill="#FFB573"/>
<path d="M219.645 149.968C222.735 149.408 244.53 168.302 244.53 168.302L238.07 177.778C238.07 177.778 214.24 161.183 214.998 157.178C215.731 152.967 215.146 150.792 219.645 149.968Z" fill="#263238"/>
<path opacity="0.2" d="M222.398 156.008L222.159 165.896C224.631 167.816 233.563 174.663 233.563 174.663L222.398 156.008Z" fill="black"/>
<path d="M205.118 346.335L212.427 347.052L214.751 330.103L207.434 329.386L205.118 346.335Z" fill="#FFB573"/>
<path d="M133.158 246.879L131.288 253.998L147.1 260.812L150.38 253.586L133.158 246.879Z" fill="#FFB573"/>
<path d="M217.66 348.552C218.289 348.629 218.925 348.49 219.464 348.156C219.581 348.055 219.671 347.928 219.728 347.784C219.786 347.641 219.808 347.486 219.794 347.332C219.794 347.236 219.767 347.142 219.718 347.059C219.669 346.977 219.598 346.909 219.514 346.863C218.632 346.335 215.649 347.753 215.311 347.909C215.279 347.924 215.252 347.949 215.234 347.98C215.217 348.011 215.209 348.047 215.212 348.082C215.217 348.119 215.233 348.153 215.258 348.179C215.283 348.206 215.316 348.224 215.352 348.231C216.11 348.408 216.882 348.515 217.66 348.552ZM218.986 347.077C219.101 347.068 219.216 347.094 219.316 347.151C219.351 347.169 219.38 347.196 219.4 347.23C219.42 347.263 219.431 347.302 219.431 347.341C219.44 347.444 219.424 347.547 219.386 347.643C219.347 347.739 219.287 347.825 219.209 347.893C218.756 348.28 217.561 348.313 215.913 348C216.885 347.515 217.933 347.2 219.011 347.069L218.986 347.077Z" fill="#00529B"/>
<path d="M215.385 348.198H215.451C216.341 347.827 218.129 346.294 218.014 345.454C217.982 345.308 217.9 345.177 217.783 345.084C217.666 344.991 217.521 344.941 217.371 344.943C217.2 344.911 217.023 344.917 216.854 344.959C216.685 345.002 216.527 345.081 216.391 345.19C215.443 345.923 215.221 347.909 215.204 347.983C215.196 348.013 215.196 348.045 215.203 348.075C215.21 348.105 215.225 348.133 215.245 348.156C215.264 348.173 215.287 348.185 215.311 348.192C215.335 348.199 215.36 348.201 215.385 348.198ZM217.206 345.256H217.305C217.627 345.305 217.643 345.429 217.643 345.47C217.717 345.973 216.498 347.192 215.583 347.679C215.671 346.843 216.023 346.058 216.588 345.437C216.772 345.305 216.999 345.249 217.223 345.281L217.206 345.256Z" fill="#00529B"/>
<path d="M212.065 344.102L205.473 344.383C205.331 344.384 205.194 344.438 205.089 344.533C204.984 344.629 204.918 344.76 204.904 344.902L203.322 354.106C203.313 354.262 203.335 354.419 203.387 354.567C203.439 354.715 203.52 354.851 203.625 354.967C203.73 355.084 203.857 355.178 203.999 355.245C204.141 355.313 204.294 355.351 204.451 355.358H204.583C207.458 355.21 208.843 354.996 212.485 354.872C214.718 354.798 221.549 355.605 224.598 354.913C227.646 354.221 227.07 351.197 225.76 351.222C221.524 351.304 216.638 348.544 214.224 345.314C213.803 345.042 212.526 344.078 212.065 344.102Z" fill="#263238"/>
<path d="M134.65 254.929L138.012 249.219C138.088 249.098 138.116 248.953 138.09 248.812C138.064 248.672 137.986 248.546 137.872 248.461L131.016 242.141C130.761 241.961 130.446 241.888 130.138 241.937C129.83 241.986 129.554 242.154 129.368 242.404L129.294 242.52C127.86 244.992 127.292 246.294 125.421 249.417C124.267 251.336 119.867 256.668 118.829 259.576C117.791 262.485 120.609 263.696 121.301 262.559C123.534 258.95 128.503 256.346 132.54 256.033C132.928 255.885 134.419 255.333 134.65 254.929Z" fill="#263238"/>
<path opacity="0.2" d="M214.751 330.103L213.556 338.845L206.239 338.128L207.426 329.394L214.751 330.103Z" fill="black"/>
<path opacity="0.2" d="M155.242 255.349L151.863 262.971L141.679 258.472L144.274 251.213L155.242 255.349Z" fill="black"/>
<path d="M224.318 158.661C228.495 165.764 223.386 171.755 219.118 192.981L191.58 193.055C192.025 181.618 191.975 172.373 187.097 149.869C186.971 149.315 186.971 148.739 187.098 148.184C187.226 147.63 187.476 147.112 187.832 146.668C188.188 146.224 188.639 145.867 189.153 145.622C189.666 145.377 190.228 145.252 190.797 145.255C193.071 145.255 195.931 145.329 198.839 145.626C203.427 146.001 207.984 146.692 212.477 147.694C214.913 148.281 217.308 149.03 219.645 149.935C221.063 150.413 222.768 154.269 224.318 158.661Z" fill="#263238"/>
<path d="M220.14 194.415C220.14 194.415 235.606 239.133 235.236 260.639C235.021 272.958 234.09 295.915 230.374 312.057C227.342 325.241 214.982 333.646 214.982 333.646L205.094 333.061C205.094 333.061 199.738 312.955 200.669 304.954C202.523 289.026 208.019 277.062 207.351 262.436C206.297 238.49 199.21 194.044 199.21 194.044L220.14 194.415Z" fill="#00529B"/>
<path d="M203.108 335.64L217.075 336.464L218.344 332.27L202.737 330.828L203.108 335.64Z" fill="#263238"/>
<path opacity="0.2" d="M204.871 284.758C204.871 284.758 204.871 284.676 204.953 284.684C213.729 285.508 219.785 272.876 218.343 255.58L213.688 211.496L204.871 284.758Z" fill="black"/>
<path d="M213.202 194.044C213.202 194.044 225.496 272.678 199.935 281.528C186.446 286.637 175.1 281.099 161.661 275.15C153.89 271.714 144.184 262.411 144.184 262.411L147.916 252.251C154.63 250.436 161.654 250.082 168.516 251.213C181.618 253.24 182.17 256.981 186.826 254.155C196.615 229.962 179.772 210.837 191.217 194.003L213.202 194.044Z" fill="#00529B"/>
<path d="M148.65 250.323L143.656 263.499L147.331 266.309L153.264 250.628L148.65 250.323Z" fill="#263238"/>
<path d="M146.59 179.269C145.345 181.107 139.034 179.863 139.034 179.863L137.69 172.043L145.444 175.149L146.59 179.269Z" fill="#FFB573"/>
<path d="M139.256 171.639L140.459 179.764L135.803 180.456C135.551 180.479 135.299 180.407 135.097 180.255C134.894 180.103 134.755 179.881 134.707 179.632L132.919 173.864C132.889 173.73 132.911 173.589 132.982 173.471C133.053 173.353 133.166 173.266 133.298 173.23L139.256 171.639Z" fill="#FFB573"/>
<path d="M137.171 175.322L139.825 175.792L142.338 173.905L141.365 173.213C140.707 172.744 140.243 172.049 140.064 171.26C139.877 170.434 139.764 169.593 139.726 168.747V168.467C139.694 168.218 139.582 167.987 139.406 167.809C139.231 167.63 139.001 167.514 138.753 167.478L138.094 167.964C137.682 168.862 137.979 169.909 137.929 170.609L137.822 171.969L136.759 172.43L137.171 175.322Z" fill="#FFB573"/>
<path d="M188.424 148.32L172.834 169.744L144.2 175.397V180.093C144.2 180.093 171.112 182.088 177.16 178.569C183.208 175.051 193.352 153.709 193.352 153.709L188.424 148.32Z" fill="#FFB573"/>
<path d="M188.243 107.12C181.7 104.928 174.111 108.99 171.12 115.203C168.129 121.416 169.175 129.038 172.546 135.054C173.559 136.875 174.77 138.589 175.603 140.492C176.528 142.379 176.73 144.539 176.171 146.565C175.496 148.534 174.803 149.795 172.364 149.482C172.364 149.482 172.364 148.13 173.295 148.295C173.295 148.295 171.318 149.391 170.543 148.674C171.441 150.059 173.839 149.556 174.606 148.089C175.751 145.906 173.642 142.948 171.17 142.972C168.698 142.997 166.687 145.502 166.769 147.966C166.872 149.198 167.311 150.378 168.037 151.379C168.763 152.38 169.75 153.163 170.889 153.643C170.221 153.753 169.536 153.639 168.94 153.319C168.343 152.998 167.87 152.489 167.593 151.871C168.714 154.805 172.373 156.099 175.463 155.522C178.553 154.945 181.165 152.967 183.587 150.965C186.883 148.262 190.253 144.843 190.179 140.616C190.105 137.46 188.078 134.749 186.372 132.087C184.667 129.426 183.175 126.179 184.263 123.221C185.178 120.708 187.666 119.192 189.858 117.659C191.44 116.563 194.654 114.116 194.274 111.8C193.887 109.592 190.097 107.738 188.243 107.12Z" fill="#263238"/>
<path d="M173.501 180.456L169.184 169.027L170.172 169.11C170.972 169.177 171.775 169.012 172.484 168.635C173.192 168.258 173.777 167.684 174.169 166.984C177.465 161.117 185.977 146.227 188.375 145.485C191.794 144.472 195.313 147.208 196.615 151.253C197.595 154.228 187.551 166.984 182.92 174.235C178.808 180.654 173.501 180.456 173.501 180.456Z" fill="#263238"/>
<path d="M131.387 258.687V258.777C131.447 258.936 131.547 259.076 131.677 259.186C131.807 259.295 131.962 259.37 132.128 259.403C132.228 259.435 132.335 259.44 132.437 259.418C132.54 259.397 132.635 259.349 132.713 259.28C133.406 258.645 132.961 255.984 132.919 255.72C132.915 255.686 132.9 255.654 132.876 255.629C132.852 255.604 132.821 255.587 132.788 255.58C132.756 255.576 132.723 255.58 132.693 255.592C132.663 255.603 132.636 255.622 132.615 255.646C132.054 256.437 131.164 257.846 131.387 258.687ZM132.656 256.215C132.804 257.269 132.87 258.687 132.483 259.033C132.442 259.055 132.397 259.067 132.351 259.067C132.305 259.067 132.259 259.055 132.219 259.033C132.108 259.012 132.005 258.963 131.918 258.891C131.832 258.819 131.765 258.726 131.725 258.621C131.576 258.176 131.889 257.269 132.656 256.198V256.215Z" fill="#00529B"/>
<path d="M132.664 256.066C132.878 256.956 133.719 258.472 134.46 258.654C134.595 258.681 134.736 258.661 134.859 258.599C134.981 258.536 135.079 258.433 135.136 258.308C135.201 258.19 135.238 258.06 135.247 257.926C135.255 257.792 135.234 257.658 135.185 257.533C134.848 256.511 132.903 255.671 132.821 255.63C132.794 255.615 132.764 255.608 132.734 255.608C132.704 255.608 132.674 255.615 132.647 255.63C132.623 255.649 132.605 255.674 132.593 255.703C132.581 255.732 132.578 255.763 132.582 255.794C132.602 255.887 132.629 255.978 132.664 256.066ZM134.905 257.714C134.922 257.787 134.924 257.862 134.911 257.936C134.899 258.01 134.871 258.08 134.831 258.143C134.724 258.34 134.617 258.34 134.534 258.324C134.032 258.225 133.265 256.981 133.018 256.116C133.653 256.437 134.666 257.039 134.881 257.665C134.875 257.681 134.875 257.698 134.881 257.714H134.905Z" fill="#00529B"/>
<path d="M191.481 191.662L190.715 194.34C190.616 194.546 190.855 194.761 191.201 194.752H219.629C219.901 194.752 220.123 194.612 220.14 194.448L220.404 191.77C220.404 191.588 220.189 191.423 219.893 191.432H191.959C191.866 191.424 191.773 191.442 191.689 191.483C191.605 191.523 191.533 191.585 191.481 191.662Z" fill="#00529B"/>
<path opacity="0.5" d="M191.481 191.662L190.715 194.34C190.616 194.546 190.855 194.761 191.201 194.752H219.629C219.901 194.752 220.123 194.612 220.14 194.448L220.404 191.77C220.404 191.588 220.189 191.423 219.893 191.432H191.959C191.866 191.424 191.773 191.442 191.689 191.483C191.605 191.523 191.533 191.585 191.481 191.662Z" fill="white"/>
<path d="M196.936 195H196.112C195.955 195 195.824 194.917 195.84 194.818L196.211 191.333C196.211 191.234 196.367 191.152 196.532 191.152H197.356C197.513 191.152 197.636 191.234 197.628 191.341L197.257 194.818C197.208 194.917 197.06 195.008 196.936 195Z" fill="#00529B"/>
<path d="M217.429 195H216.605C216.457 195 216.325 194.917 216.341 194.818L216.712 191.341C216.712 191.234 216.86 191.152 217.017 191.152H217.841C217.997 191.152 218.129 191.234 218.113 191.333L217.742 194.81C217.726 194.917 217.594 195 217.429 195Z" fill="#00529B"/>
<path d="M208.027 194.983H207.203C207.046 194.983 206.915 194.901 206.931 194.802L207.302 191.325C207.302 191.217 207.458 191.135 207.615 191.135H208.439C208.596 191.135 208.719 191.217 208.711 191.316L208.332 194.794C208.332 194.901 208.192 194.983 208.027 194.983Z" fill="#00529B"/>
<path d="M200.125 130.629C200.998 135.12 201.855 143.228 198.806 145.667C198.806 145.667 200.026 150.273 208.175 151.501C217.173 152.852 212.452 147.727 212.452 147.727C207.549 145.79 207.673 142.247 208.513 138.984L200.125 130.629Z" fill="#FFB573"/>
<path d="M198.839 145.626C203.188 145.901 207.509 146.502 211.768 147.422L217.931 149.259C219.027 151.468 217.231 156.008 212.073 156.873C212.073 156.873 199.078 158.661 195.247 145.279L198.839 145.626Z" fill="#FFB573"/>
<path opacity="0.2" d="M203.528 134.048L208.472 138.992C208.264 139.758 208.128 140.541 208.068 141.332C206.189 140.78 203.174 138.712 202.968 136.735C202.97 135.81 203.161 134.896 203.528 134.048Z" fill="black"/>
<path d="M194.621 124.96C196.829 131.931 197.603 134.93 202.127 137.674C208.868 141.794 216.959 137.575 216.877 130.093C216.811 123.353 213.226 113.086 205.572 111.965C203.889 111.713 202.17 111.896 200.578 112.496C198.985 113.096 197.573 114.093 196.476 115.393C195.378 116.693 194.631 118.252 194.307 119.923C193.982 121.593 194.09 123.318 194.621 124.935V124.96Z" fill="#FFB573"/>
<path d="M211.257 123.872C212.036 125.095 212.982 126.205 214.067 127.168C213.813 127.443 213.503 127.659 213.157 127.801C212.811 127.943 212.438 128.008 212.065 127.992L211.257 123.872Z" fill="#ED893E"/>
<path d="M210.474 131.716C210.753 131.686 211.029 131.631 211.298 131.552C211.319 131.547 211.339 131.538 211.357 131.525C211.375 131.513 211.39 131.497 211.401 131.478C211.413 131.46 211.42 131.44 211.424 131.418C211.427 131.397 211.427 131.375 211.422 131.354C211.41 131.311 211.382 131.274 211.344 131.25C211.305 131.227 211.26 131.22 211.216 131.23C210.512 131.424 209.773 131.451 209.058 131.308C208.343 131.164 207.671 130.856 207.096 130.406C207.062 130.373 207.016 130.354 206.968 130.354C206.92 130.354 206.874 130.373 206.84 130.406C206.824 130.422 206.811 130.442 206.802 130.463C206.793 130.484 206.789 130.507 206.789 130.53C206.789 130.553 206.793 130.576 206.802 130.597C206.811 130.618 206.824 130.637 206.84 130.653C207.347 131.061 207.928 131.364 208.552 131.547C209.175 131.729 209.828 131.787 210.474 131.716Z" fill="#263238"/>
<path d="M192.223 111.042C191.315 111.63 190.561 112.426 190.024 113.365C189.488 114.305 189.185 115.359 189.141 116.439C189.103 116.853 189.169 117.269 189.33 117.651C189.412 117.84 189.541 118.004 189.706 118.127C189.871 118.25 190.065 118.327 190.27 118.351C190.896 118.351 191.357 117.791 191.704 117.263L193.302 114.791C193.96 113.988 194.514 113.105 194.95 112.163C195.486 110.54 193.203 110.416 192.223 111.042Z" fill="#00529B"/>
<path d="M193.005 112.682C188.63 117.741 186.669 131.741 199.49 135.647C201.633 133.949 198.172 130.859 196.705 126.954C195.741 124.399 200.627 119.628 202.531 117.667C204.434 115.706 206.189 112.88 208.876 113.333C209.558 113.561 210.292 113.581 210.985 113.391C213.119 112.427 212.081 111.149 210.985 110.259C209.304 109.015 207.303 108.278 205.217 108.134C202.967 107.868 200.686 108.143 198.562 108.934C196.439 109.724 194.534 111.009 193.005 112.682Z" fill="#263238"/>
<path d="M207.236 110.985C212.386 115.278 205.588 115.385 201.987 118.104C198.535 120.716 200.957 124.993 195.115 126.978C190.344 128.371 189.24 127.53 187.921 126.608C189.555 126.325 191.05 125.51 192.172 124.289C193.294 123.068 193.981 121.511 194.126 119.859C194.53 116.728 201.353 106.008 207.236 110.985Z" fill="#263238"/>
<path d="M193.846 130.818C194.653 131.98 195.884 132.779 197.274 133.043C199.12 133.364 199.828 131.675 199.194 130.027C198.592 128.544 196.919 126.591 195.131 127.011C194.517 127.17 193.99 127.567 193.667 128.114C193.344 128.661 193.252 129.313 193.409 129.928C193.493 130.251 193.642 130.554 193.846 130.818Z" fill="#FFB573"/>
<path d="M206.354 111.421C207.351 113.959 210.227 113.621 212.353 116.275C213.663 117.923 216.234 112.839 212.732 110.836C209.23 108.834 204.789 107.45 206.354 111.421Z" fill="#263238"/>
<path d="M203.322 122.133C203.395 122.141 203.469 122.125 203.533 122.088C203.597 122.051 203.647 121.995 203.676 121.927C204.352 120.428 206.379 120.049 206.395 120.049C206.486 120.029 206.565 119.975 206.618 119.898C206.67 119.822 206.69 119.728 206.676 119.637C206.658 119.547 206.605 119.469 206.53 119.418C206.454 119.367 206.361 119.348 206.272 119.365C206.165 119.365 203.858 119.851 203.034 121.664C202.997 121.748 202.994 121.843 203.027 121.929C203.059 122.015 203.124 122.086 203.207 122.125H203.322V122.133Z" fill="#263238"/>
<path d="M214.034 119.101C214.094 119.105 214.155 119.093 214.208 119.065C214.262 119.038 214.307 118.996 214.339 118.944C214.365 118.907 214.384 118.865 214.393 118.821C214.403 118.777 214.404 118.731 214.395 118.686C214.387 118.642 214.369 118.599 214.344 118.561C214.319 118.524 214.286 118.491 214.248 118.466C213.792 118.15 213.266 117.949 212.715 117.878C212.165 117.808 211.605 117.871 211.084 118.063C211.041 118.08 211.001 118.105 210.968 118.138C210.935 118.171 210.91 118.211 210.893 118.254C210.876 118.297 210.868 118.344 210.869 118.39C210.871 118.437 210.883 118.482 210.903 118.524C210.939 118.608 211.007 118.674 211.092 118.708C211.177 118.742 211.272 118.741 211.356 118.705C211.766 118.562 212.204 118.519 212.634 118.579C213.064 118.639 213.473 118.801 213.828 119.052C213.892 119.083 213.963 119.1 214.034 119.101Z" fill="#263238"/>
<path d="M247.909 164.207L243.08 166.951L238.062 177.745C238.062 177.745 242.907 180.827 246.73 178.33C250.554 175.833 247.909 164.207 247.909 164.207Z" fill="#00529B"/>
<path opacity="0.5" d="M247.909 164.207L243.08 166.951L238.062 177.745C238.062 177.745 242.907 180.827 246.73 178.33C250.554 175.833 247.909 164.207 247.909 164.207Z" fill="white"/>
<path d="M163.473 167.544L169.184 169.192L174.597 180.39C174.597 180.39 170.247 184.419 165.533 180.571C162.007 177.654 163.473 167.544 163.473 167.544Z" fill="#00529B"/>
<g opacity="0.5">
<path d="M163.473 167.544L169.184 169.192L174.597 180.39C174.597 180.39 170.247 184.419 165.533 180.571C162.007 177.654 163.473 167.544 163.473 167.544Z" fill="white"/>
</g>
<path d="M213.704 121.894C214.1 121.82 214.528 122.265 214.619 122.875C214.71 123.485 214.487 124.045 214.092 124.111C213.696 124.177 213.268 123.74 213.177 123.13C213.086 122.521 213.309 121.952 213.704 121.894Z" fill="#263238"/>
<path d="M214.924 121.293L213.531 121.977C214.372 122.57 214.924 121.293 214.924 121.293Z" fill="#263238"/>
<path d="M206.824 123.312C207.219 123.237 207.648 123.682 207.739 124.292C207.829 124.902 207.607 125.462 207.211 125.528C206.816 125.594 206.387 125.157 206.297 124.548C206.206 123.938 206.412 123.386 206.824 123.312Z" fill="#263238"/>
<path d="M208.027 122.71L206.634 123.394C207.475 123.987 208.027 122.71 208.027 122.71Z" fill="#263238"/>
<path d="M171.936 154.838C171.16 154.842 170.391 154.697 169.67 154.409C167.115 153.363 165.929 150.71 166.374 147.117C166.388 147.009 166.445 146.911 166.531 146.844C166.618 146.778 166.727 146.749 166.835 146.763C166.889 146.769 166.941 146.786 166.989 146.812C167.036 146.839 167.078 146.875 167.111 146.918C167.144 146.961 167.168 147.01 167.181 147.063C167.195 147.116 167.198 147.17 167.19 147.224C166.761 150.413 167.766 152.753 169.95 153.643C171.217 154.077 172.589 154.098 173.87 153.705C175.15 153.311 176.273 152.522 177.078 151.451C179.146 148.699 178.47 144.793 175.248 140.739C166.811 130.151 167.371 124.523 168.566 120.073C170.296 113.613 175.364 106.214 189.701 107.639C189.811 107.65 189.911 107.704 189.981 107.789C190.05 107.874 190.083 107.983 190.072 108.092C190.061 108.202 190.007 108.302 189.922 108.372C189.837 108.441 189.728 108.474 189.619 108.463C175.866 107.095 171.005 114.149 169.357 120.296C168.17 124.745 167.709 129.945 175.891 140.237C180.835 146.441 178.833 150.504 177.737 151.954C177.051 152.842 176.173 153.563 175.168 154.063C174.163 154.562 173.058 154.827 171.936 154.838Z" fill="#263238"/>
</svg>
